<svg height="512" viewBox="0 0 128 128" width="512" xmlns="http://www.w3.org/2000/svg"><g id="Circle_Grid" data-name="Circle Grid"><circle cx="64" cy="64" fill="#3b5059" r="64"/></g><g id="icon"><path d="m106 65.323a13.929 13.929 0 0 1 -13.809 14.051h-56.382a14.079 14.079 0 0 1 -3-27.77 19.08 19.08 0 0 1 17.955-24.359 18.68 18.68 0 0 1 16.923 10.909 13.652 13.652 0 0 1 9.432-3.791 13.93 13.93 0 0 1 13.808 14.058 14.23 14.23 0 0 1 -.3 2.941 11.8 11.8 0 0 1 1.567-.1 13.931 13.931 0 0 1 13.806 14.061z" fill="#69b0ee"/><g fill="#eeefee"><path d="m64 102.755-13.966-17.774h27.932z"/><path d="m57.108 60.672h13.784v26.48h-13.784z"/></g></g></svg>