<svg xmlns="http://www.w3.org/2000/svg" xmlns:xlink="http://www.w3.org/1999/xlink" viewBox="0 0 500 500"><defs><clipPath id="freepik--clip-path--inject-51"><path d="M296.9,188.19,280,181.58a34,34,0,0,0-5.73,12.57s-4.69,9.38-9.38,19.75-4.94,23.95-4.45,37.29,1.73,43.7,1.73,43.7,4.2,6.42,19.26,1.73,16.79-16.05,16.79-19.26-2-13.08-2-14.32,3-19.75,2.47-28.15-7.41-30.62-7.41-30.62a98,98,0,0,0,4.2-12.59A22.54,22.54,0,0,1,296.9,188.19Z" style="fill:#4760A1;stroke:#263238;stroke-linecap:round;stroke-linejoin:round;stroke-width:1.1002125520252548px"></path></clipPath><clipPath id="freepik--clip-path-2--inject-51"><path d="M274.52,219.83c3.45-6.42,7.41-4.94,7.41-4.94,9.63,0,22.47,8.4,34.81,13.09s52.35,14.32,52.35,14.32,5.19-4.2,7.16-4.2S387.86,244,387.86,244a2.33,2.33,0,0,1-.5,3,4.94,4.94,0,0,1-3.21,1.48s-1.48,3.21-3.45,3.95-6.92.5-9.88-.74S364.4,249,364.4,249s-81.49-12.6-85.68-13.34-4.94-3.21-4.94-3.21" style="fill:#4760A1;stroke:#263238;stroke-linecap:round;stroke-linejoin:round;stroke-width:1.1002125520252548px"></path></clipPath><clipPath id="freepik--clip-path-3--inject-51"><path d="M376.25,238.1c-2,0-7.16,4.2-7.16,4.2s-30.9-7.44-46.76-12.43L319,241.94l45.38,7s3.46,1.48,6.42,2.71,7.9,1.48,9.88.74,3.45-3.95,3.45-3.95a4.94,4.94,0,0,0,3.21-1.48,2.33,2.33,0,0,0,.5-3S378.23,238.1,376.25,238.1Z" style="fill:#fff;stroke:#263238;stroke-linecap:round;stroke-linejoin:round;stroke-width:1.1002125520252548px"></path></clipPath><clipPath id="freepik--clip-path-4--inject-51"><path d="M314.2,241.19l6.64,1,3.45-11.74c-2.64-.8-4.94-1.55-6.77-2.22Z" style="fill:#fff;stroke:#263238;stroke-linecap:round;stroke-linejoin:round;stroke-width:1.1002125520252548px"></path></clipPath><clipPath id="freepik--clip-path-5--inject-51"><path d="M189,283s-7.76,11.64-10.58,25.22-4.23,33.16-4.23,33.16-8.12,8.29-12.88,15.7-16.93,33-16.93,33-.18,2.82,2.82,1.41,27.34-25,32.28-32.28,9-14.46,10.23-18,16.05-34,16.05-34l3.88.18s-1.41,28.92-.18,40.57,1.94,17.46,4.59,21,31,43.57,31,43.57a4.43,4.43,0,0,0,3,1.06c1.94,0,2.82-2.47,2.82-2.47l-14.46-37.39s-4.76-12.35-7.06-15.52-3.7-5.47-3.7-5.47,7.94-27.52,9.88-42.16,2.29-18.52.17-25.92-35.49-8.33-40.74-6.88S189,283,189,283Z" style="fill:#4760A1;stroke:#263238;stroke-linecap:round;stroke-linejoin:round;stroke-width:1.1002125520252548px"></path></clipPath><clipPath id="freepik--clip-path-6--inject-51"><path d="M203.83,216.46a46.16,46.16,0,0,1-7.58,0c-3.71-.35-6.35-2.47-9.71.89s-13.4,12.34-16.22,14.11-22.23,14.28-22.23,14.28l-7.4,5.82,1.76,3.35s21.58-8.63,29.46-13.4c11.64-7.06,16.05-9.7,16.05-9.7s1.41,12.17,4.58,17.46,7.41,15,7.41,15L188.13,284s7.06,7.4,22.75,7.58,25.58-4.23,25.58-4.23-4.23-16.76-5.47-21-3.17-9.88-3.17-9.88,3-18.87,2.11-25.93-1.58-12.87-3.52-13.75-8.47-2.83-12-1.24S203.83,216.46,203.83,216.46Z" style="fill:#fff;stroke:#263238;stroke-linecap:round;stroke-linejoin:round;stroke-width:1.1002125520252548px"></path></clipPath><clipPath id="freepik--clip-path-7--inject-51"><path d="M229.58,228.81a22.11,22.11,0,0,0-1.76-10.93c-1.86-3.84-11.29-4.06-16.41-1.24S173.14,235,167.67,237.81s-18,7.4-18,7.4-7.05,0-8.11.53-9.35,4.77-9.17,6.35,2.29,2.3,2.82,2.3a27.53,27.53,0,0,0,2.82-.53s1.06,4.93,2.12,5.64,8.82.53,10.58-.53,5.64-8.29,5.64-8.29,34.4-9.7,38.28-11.64,10.4-6.17,14.46-6.88,13-3.17,13-3.17" style="fill:#fff;stroke:#263238;stroke-linecap:round;stroke-linejoin:round;stroke-width:1.1002125520252548px"></path></clipPath><clipPath id="freepik--clip-path-8--inject-51"><path d="M149.68,245.21s-7.05,0-8.11.53-9.35,4.77-9.17,6.35,2.29,2.3,2.82,2.3a27.53,27.53,0,0,0,2.82-.53s1.06,4.93,2.12,5.64,8.82.53,10.58-.53,5.64-8.29,5.64-8.29,20.84-5.87,31.9-9.39a15.7,15.7,0,0,0-6-10.55c-6.79,3.23-12.61,6-14.64,7.07C162.2,240.63,149.68,245.21,149.68,245.21Z" style="fill:#fff;stroke:#263238;stroke-linecap:round;stroke-linejoin:round;stroke-width:1.1002125520252548px"></path></clipPath></defs><g id="freepik--background-simple--inject-51"><path d="M129,81.49s-57.77,41.61-61.89,117,42,145.17,77.81,202.6,97.61,78.56,149.57,53.1,35.63-76.78,73.15-135.77,56.72-68.88,55.17-139.33S346.53,47,261.21,45.63,129,81.49,129,81.49Z" style="fill:#4760A1"></path><path d="M129,81.49s-57.77,41.61-61.89,117,42,145.17,77.81,202.6,97.61,78.56,149.57,53.1,35.63-76.78,73.15-135.77,56.72-68.88,55.17-139.33S346.53,47,261.21,45.63,129,81.49,129,81.49Z" style="fill:#fff;opacity:0.7000000000000001"></path></g><g id="freepik--character-2--inject-51"><path d="M290.81,372.18s16.3,8.65,16.8,9.88-.5,1.73-6.92,1.73-14.32-2.72-18.27-2.72-7.41-3-3.7-5.92,5.92-4.94,5.92-4.94Z" style="fill:#fff;stroke:#263238;stroke-linecap:round;stroke-linejoin:round;stroke-width:1.1002125520252548px"></path><path d="M295,271.68l6.18,8.15s26,37.14,30.37,45.93c3.95,7.9,5.05,12.6,4.94,14.08-.5,6.17-45.19,34.07-45.19,34.07a5.85,5.85,0,0,1-5.19.74,4.42,4.42,0,0,1-3.21-3.45l33.34-34.82-21.73-20.5-5.19-40.25S290.32,269.21,295,271.68Z" style="fill:#263238;stroke:#263238;stroke-linecap:round;stroke-linejoin:round;stroke-width:1.1002125520252548px"></path><path d="M321.42,144.54l-5.87,25.7a4.6,4.6,0,0,0,3.31,3.7c3.09,1,15.61-1.62,15.61-1.62s3.45-.48,2.27-5.84-10.42-23.66-10.42-23.66Z" style="fill:#fff;stroke:#263238;stroke-linecap:round;stroke-linejoin:round;stroke-width:1.1002125520252548px"></path><path d="M322.17,148.51l-4.55,19.9a3.56,3.56,0,0,0,2.57,2.86c2.39.8,12.09-1.25,12.09-1.25s2.67-.37,1.76-4.52S326,147.18,326,147.18Z" style="fill:#4760A1"></path><path d="M330.82,140.56s2.47,4.7,1.48,6.67-3,4.94-3.46,2.47-3-5.68-3-7.65S329.34,137.85,330.82,140.56Z" style="fill:#4760A1;stroke:#263238;stroke-linecap:round;stroke-linejoin:round;stroke-width:1.1002125520252548px"></path><path d="M327.85,146.13s2.43-1.14,3-5.57" style="fill:none;stroke:#263238;stroke-linecap:round;stroke-linejoin:round;stroke-width:1.1002125520252548px"></path><path d="M328.73,148.75a6.91,6.91,0,0,0,3.49-4.62" style="fill:none;stroke:#263238;stroke-linecap:round;stroke-linejoin:round;stroke-width:1.1002125520252548px"></path><path d="M380.52,245.89,375,278.41a5.75,5.75,0,0,1-5.6,2.68c-4.07-.29-17.27-9.36-17.27-9.36s-3.75-2.21.18-7.83,23.38-22.35,23.38-22.35Z" style="fill:#fff;stroke:#263238;stroke-linecap:round;stroke-linejoin:round;stroke-width:1.1002125520252548px"></path><path d="M378.07,249.3l-4.52,26.55A4.7,4.7,0,0,1,369,278c-3.31-.23-14.09-7.64-14.09-7.64s-3.07-1.8.14-6.39,19.09-18.25,19.09-18.25Z" style="fill:#4760A1"></path><path d="M380.56,232.91l8.88,5.25a1.55,1.55,0,0,1,.57,2.07h0a1.56,1.56,0,0,1-1.63.79L382.43,240l-1.06,2.12-6.17-1.94,1.76-2.82-.22-.33a2.86,2.86,0,0,1,.87-4.07h0A2.87,2.87,0,0,1,380.56,232.91Z" style="fill:#fff;stroke:#263238;stroke-linecap:round;stroke-linejoin:round;stroke-width:1.1002125520252548px"></path><path d="M267.85,402.8s8.89,7.9,13.09,10.62,4.69,3.7,3.95,5.19-7.16.49-15.06-1.24-15.07-3.46-15.31-7.9,4.69-7.41,4.69-7.41Z" style="fill:#fff;stroke:#263238;stroke-linecap:round;stroke-linejoin:round;stroke-width:1.1002125520252548px"></path><path d="M262.42,292.92s2,14.07,5.68,21.73l18.27,37.78s-8.89,10.86-11.85,18.27-16.79,32.84-16.79,32.84a3.32,3.32,0,0,0,3.21,2.72,24,24,0,0,0,5.92-1s29.88-37.28,33.58-39.51,5.19-7.16,5.19-10.86S300,319.09,300,319.09l-4.44-34.81s-8.89,6.91-16.79,8.39A56.86,56.86,0,0,1,262.42,292.92Z" style="fill:#263238;stroke:#263238;stroke-linecap:round;stroke-linejoin:round;stroke-width:1.1002125520252548px"></path><path d="M274.27,194.15s-4.69,9.38-9.38,19.75-4.94,23.95-4.45,37.29,1.73,43.7,1.73,43.7,4.2,6.42,19.26,1.73,16.79-16.05,16.79-19.26-2-13.08-2-14.32,3-19.75,2.47-28.15-7.41-30.62-7.41-30.62a98,98,0,0,0,4.2-12.59c2.22-8.15,25.68-44.2,25.68-44.2s4.19-3.46,5.18-6.42,2.44-8-1.26-7.55-6,2.89-6,3.87-2.37,8.37-2.37,8.37l-26.42,25.93a43.78,43.78,0,0,0-10.12,9.63A33.91,33.91,0,0,0,274.27,194.15Z" style="fill:#fff;stroke:#263238;stroke-linecap:round;stroke-linejoin:round;stroke-width:1.1002125520252548px"></path><path d="M326.37,141.06c1-3,2.44-8-1.26-7.55s-6,2.89-6,3.87-2.37,8.37-2.37,8.37l-3.44,3.38,4.71,3.29c1.93-3,3.18-4.94,3.18-4.94S325.38,144,326.37,141.06Z" style="fill:#4760A1;stroke:#263238;stroke-linecap:round;stroke-linejoin:round;stroke-width:1.1002125520252548px"></path><path d="M296.9,188.19,280,181.58a34,34,0,0,0-5.73,12.57s-4.69,9.38-9.38,19.75-4.94,23.95-4.45,37.29,1.73,43.7,1.73,43.7,4.2,6.42,19.26,1.73,16.79-16.05,16.79-19.26-2-13.08-2-14.32,3-19.75,2.47-28.15-7.41-30.62-7.41-30.62a98,98,0,0,0,4.2-12.59A22.54,22.54,0,0,1,296.9,188.19Z" style="fill:#4760A1"></path><g style="clip-path:url(#freepik--clip-path--inject-51)"><path d="M279,295.13c1.65-1.65,14-22.83,15.95-30.53s-10.18,14-10.18,11.83,5.23-25.3,5.78-32.18-8.53,2.47-11.28,3,3.85-6.87,5-9.62-3.85,2.2-7.42,1.92,8.25-6.87,8.25-6.87l-.83-20.63s6.33-14.58,2.2-20.36-5.77-6.6-6.87-6.6a11.55,11.55,0,0,0-2.14.6,33.41,33.41,0,0,0-3.14,8.44s-4.69,9.38-9.38,19.75-4.94,23.95-4.45,37.29,1.73,43.7,1.73,43.7,4.2,6.42,19.26,1.73l.87-.29C280,296,278.5,295.63,279,295.13Z" style="opacity:0.2"></path></g><path d="M296.9,188.19,280,181.58a34,34,0,0,0-5.73,12.57s-4.69,9.38-9.38,19.75-4.94,23.95-4.45,37.29,1.73,43.7,1.73,43.7,4.2,6.42,19.26,1.73,16.79-16.05,16.79-19.26-2-13.08-2-14.32,3-19.75,2.47-28.15-7.41-30.62-7.41-30.62a98,98,0,0,0,4.2-12.59A22.54,22.54,0,0,1,296.9,188.19Z" style="fill:none;stroke:#263238;stroke-linecap:round;stroke-linejoin:round;stroke-width:1.1002125520252548px"></path><path d="M287.6,235.88s-7.16,4.94-14.32,5.92" style="fill:none;stroke:#263238;stroke-linecap:round;stroke-linejoin:round;stroke-width:1.1002125520252548px"></path><path d="M289.33,235.38s-6.17,8.4-13.82,12.35" style="fill:none;stroke:#263238;stroke-linecap:round;stroke-linejoin:round;stroke-width:1.1002125520252548px"></path><path d="M277.48,192.91s0,5.93-1.73,10.13S273,208,273,208s5.43,5.68,8.89,6.91a17.06,17.06,0,0,0,6.42,1l2.71-8.4s-3.95-5.18-6.17-8.64S279.21,190.94,277.48,192.91Z" style="fill:#fff;stroke:#263238;stroke-linecap:round;stroke-linejoin:round;stroke-width:1.1002125520252548px"></path><path d="M299.7,176.37a4.83,4.83,0,0,0,2.47-6.17c-1.48-4.45-9.63-6.92-16.05-6.67s-16.29,5.43-18.76,10.86.24,11.61,2.22,15.31a21.16,21.16,0,0,0,5.93,6.42s5.67,4.69,9.38,1.24,1-7.16,4.44-10.37S299.7,176.37,299.7,176.37Z" style="fill:#263238;stroke:#263238;stroke-linecap:round;stroke-linejoin:round;stroke-width:1.1002125520252548px"></path><path d="M299,175.38s1.24,6.67,1.73,10.13a24.5,24.5,0,0,1,.25,5.67l1.73,3.46s-2.23,8.4-3.46,11.36-3.95,6.17-6.91,5.19-11.36-7.66-12.1-7.91-1.24-4.69-1.24-4.69-4.69-1.23-4.69-4.44.74-4.45,2.47-4.45,4.94,3.71,4.94,3.71,2.47.24,2.47-2-1.24-3,.49-4,2.72-1.73,2.72-3.21-5.93-1-5.43-3.21S294.77,180.57,299,175.38Z" style="fill:#fff;stroke:#263238;stroke-linecap:round;stroke-linejoin:round;stroke-width:1.1002125520252548px"></path><path d="M295.88,191.28c0,1-.41,1.77-.92,1.77s-.93-.79-.93-1.77.42-1.77.93-1.77S295.88,190.3,295.88,191.28Z" style="fill:#263238"></path><path d="M291.76,188.92a5,5,0,0,1,3.14-1,9.24,9.24,0,0,1,3.15,1.18" style="fill:none;stroke:#263238;stroke-linecap:round;stroke-linejoin:round;stroke-width:1.1002125520252548px"></path><path d="M281.93,198.84a1.93,1.93,0,0,1-2.85.67c.19,1.31.59,3.6,1.12,3.77.74.25,9.13,6.92,12.1,7.91S298,209,299.21,206s3.46-11.36,3.46-11.36l-1.73-3.46,0-.34c-2.43,1.27-5.08,4.51-9.66,4.3a40.27,40.27,0,0,1-9.63-1.73A4.94,4.94,0,0,1,281.93,198.84Z" style="fill:#4760A1;stroke:#263238;stroke-linecap:round;stroke-linejoin:round;stroke-width:1.1002125520252548px"></path><path d="M275.26,200.81s5.43,8.15,9.13,9.88a47.16,47.16,0,0,0,7.91,2.72l2,7.41s-8.64-.5-15.31-4.45-7.9-11.85-7.9-11.85Z" style="fill:#fff;stroke:#263238;stroke-linecap:round;stroke-linejoin:round;stroke-width:1.1002125520252548px"></path><path d="M276.46,197.47l.3.18c-.17-.17-.27-.29-.27-.29Z" style="fill:none;stroke:#263238;stroke-linecap:round;stroke-linejoin:round;stroke-width:1.1002125520252548px"></path><path d="M274.52,219.83c3.45-6.42,7.41-4.94,7.41-4.94,9.63,0,22.47,8.4,34.81,13.09s52.35,14.32,52.35,14.32,5.19-4.2,7.16-4.2S387.86,244,387.86,244a2.33,2.33,0,0,1-.5,3,4.94,4.94,0,0,1-3.21,1.48s-1.48,3.21-3.45,3.95-6.92.5-9.88-.74S364.4,249,364.4,249s-81.49-12.6-85.68-13.34-4.94-3.21-4.94-3.21" style="fill:#4760A1"></path><g style="clip-path:url(#freepik--clip-path-2--inject-51)"><path d="M289.62,232.56s13.87-1.54,17.47-3.6-21.06-6.42-19.78-8.73c.9-1.61,4.16-2.35,6.05-2.65-4.11-1.6-8-2.69-11.43-2.69,0,0-4-1.48-7.41,4.94l-.74,12.59s.74,2.47,4.94,3.21c3.48.62,60.3,9.41,79.44,12.37Z" style="opacity:0.2"></path></g><path d="M274.52,219.83c3.45-6.42,7.41-4.94,7.41-4.94,9.63,0,22.47,8.4,34.81,13.09s52.35,14.32,52.35,14.32,5.19-4.2,7.16-4.2S387.86,244,387.86,244a2.33,2.33,0,0,1-.5,3,4.94,4.94,0,0,1-3.21,1.48s-1.48,3.21-3.45,3.95-6.92.5-9.88-.74S364.4,249,364.4,249s-81.49-12.6-85.68-13.34-4.94-3.21-4.94-3.21" style="fill:none;stroke:#263238;stroke-linecap:round;stroke-linejoin:round;stroke-width:1.1002125520252548px"></path><path d="M376.25,238.1c-2,0-7.16,4.2-7.16,4.2s-30.9-7.44-46.76-12.43L319,241.94l45.38,7s3.46,1.48,6.42,2.71,7.9,1.48,9.88.74,3.45-3.95,3.45-3.95a4.94,4.94,0,0,0,3.21-1.48,2.33,2.33,0,0,0,.5-3S378.23,238.1,376.25,238.1Z" style="fill:#fff"></path><g style="clip-path:url(#freepik--clip-path-3--inject-51)"><path d="M289.62,232.56s13.87-1.54,17.47-3.6-21.06-6.42-19.78-8.73c.9-1.61,4.16-2.35,6.05-2.65-4.11-1.6-8-2.69-11.43-2.69,0,0-4-1.48-7.41,4.94l-.74,12.59s.74,2.47,4.94,3.21c3.48.62,60.3,9.41,79.44,12.37Z" style="opacity:0.2"></path></g><path d="M376.25,238.1c-2,0-7.16,4.2-7.16,4.2s-30.9-7.44-46.76-12.43L319,241.94l45.38,7s3.46,1.48,6.42,2.71,7.9,1.48,9.88.74,3.45-3.95,3.45-3.95a4.94,4.94,0,0,0,3.21-1.48,2.33,2.33,0,0,0,.5-3S378.23,238.1,376.25,238.1Z" style="fill:none;stroke:#263238;stroke-linecap:round;stroke-linejoin:round;stroke-width:1.1002125520252548px"></path><path d="M376.25,238.1c-2,0-7.16,4.2-7.16,4.2s-3-.73-7.71-1.89l-2.72,7.67,5.74.89s3.46,1.48,6.42,2.71,7.9,1.48,9.88.74,3.45-3.95,3.45-3.95a4.94,4.94,0,0,0,3.21-1.48,2.33,2.33,0,0,0,.5-3S378.23,238.1,376.25,238.1Z" style="fill:#4760A1;stroke:#263238;stroke-linecap:round;stroke-linejoin:round;stroke-width:1.1002125520252548px"></path><path d="M314.2,241.19l6.64,1,3.45-11.74c-2.64-.8-4.94-1.55-6.77-2.22Z" style="fill:#fff"></path><g style="clip-path:url(#freepik--clip-path-4--inject-51)"><path d="M289.62,232.56s13.87-1.54,17.47-3.6-21.06-6.42-19.78-8.73c.9-1.61,4.16-2.35,6.05-2.65-4.11-1.6-8-2.69-11.43-2.69,0,0-4-1.48-7.41,4.94l-.74,12.59s.74,2.47,4.94,3.21c3.48.62,60.3,9.41,79.44,12.37Z" style="opacity:0.2"></path></g><path d="M314.2,241.19l6.64,1,3.45-11.74c-2.64-.8-4.94-1.55-6.77-2.22Z" style="fill:none;stroke:#263238;stroke-linecap:round;stroke-linejoin:round;stroke-width:1.1002125520252548px"></path><path d="M468,254.29a18.1,18.1,0,0,0-11.31-16.77,12.36,12.36,0,0,0-23.42-7.88,9.37,9.37,0,0,0-2.19-.26l-.4,0a11.82,11.82,0,0,0-21.43,9.85l-19.81-1.09L388.38,241l12.92,11.59a15.77,15.77,0,0,0,20.19,21.75,14.34,14.34,0,0,0,28.59-1.61c0-.12,0-.24,0-.36A18.1,18.1,0,0,0,468,254.29Z" style="opacity:0.15"></path><path d="M369.17,63a18.11,18.11,0,0,0-19.77,4.29,12.2,12.2,0,0,0-3.2-1.86,12.36,12.36,0,0,0-12.8,20.71,9.76,9.76,0,0,0-1,1.94c-.05.12-.08.25-.13.37a11.83,11.83,0,0,0,1.22,23.56l-8.35,18,2.27,2,15.55-7.7a15.77,15.77,0,0,0,27.68-10.71,14.33,14.33,0,0,0,9.09-27.14,3.59,3.59,0,0,0-.35-.12A18.1,18.1,0,0,0,369.17,63Z" style="opacity:0.15"></path><path d="M322.24,133.13a5.49,5.49,0,0,0-1.17,5.34c.41,1.28,1.06,2.29,2.09,1.6,1.83-1.22,4.17-7.3,4.93-9.41a1.39,1.39,0,0,0-.2-1.32h0a1.4,1.4,0,0,0-2.17-.09Z" style="fill:#fff;stroke:#263238;stroke-linecap:round;stroke-linejoin:round;stroke-width:1.1002125520252548px"></path><path d="M320.61,141.38s5-4.39,6.24-5.62,3.23-.63,3.47,1.59,2.4,4.9.53,6.28c-.8.58-2.75-2.32-2.75-2.32s.25,3.21-2,4.93a6.8,6.8,0,0,1-4.94,1.24" style="fill:#4760A1;stroke:#263238;stroke-linecap:round;stroke-linejoin:round;stroke-width:1.1002125520252548px"></path></g><g id="freepik--character-1--inject-51"><path d="M201.29,173.85c-1,.61-2,1.26-3,2-5.2,3.69-11.64,8.93-13,15.49-1.69,8,5.5,9.16,7.9,10.71s4.22,8.46,2,18.05-7.47,22.69-12.12,27.34-15.93,13.82-18.33,20.87,2,13.11,12.41,12.83,12.68-2,12.68-2-10.71,8-7.75,12.69,28.9,10.15,48.21,5.36,25.37-16.92,25.37-16.92.15,4.79,3.53,3.52,4.65-9.86,4.65-22.13-9.16-30-15.51-38.76-13.95-22.28-14.8-25.1.43-12.26-3.38-19.59-9.16-8.88-13.11-8.88A31.07,31.07,0,0,0,201.29,173.85Z" style="fill:#263238;stroke:#263238;stroke-linecap:round;stroke-linejoin:round;stroke-width:1.1002125520252548px"></path><path d="M145.27,388.43a21.93,21.93,0,0,0-7.76,9.7c-2.64,6.53-1.41,10.59,1.59,10.06s7.23-8.12,8.82-12.53,3-9.52,3-9.52Z" style="fill:#fff;stroke:#263238;stroke-linecap:round;stroke-linejoin:round;stroke-width:1.1002125520252548px"></path><path d="M244.57,411a77.15,77.15,0,0,0-3.17,10.76c-1.41,6.35.7,12.7,3.17,11.46s6-8.64,6.53-13.93a27.64,27.64,0,0,0-.18-8.29S248.1,407,244.57,411Z" style="fill:#fff;stroke:#263238;stroke-linecap:round;stroke-linejoin:round;stroke-width:1.1002125520252548px"></path><path d="M189,283s-7.76,11.64-10.58,25.22-4.23,33.16-4.23,33.16-8.12,8.29-12.88,15.7-16.93,33-16.93,33-.18,2.82,2.82,1.41,27.34-25,32.28-32.28,9-14.46,10.23-18,16.05-34,16.05-34l3.88.18s-1.41,28.92-.18,40.57,1.94,17.46,4.59,21,31,43.57,31,43.57a4.43,4.43,0,0,0,3,1.06c1.94,0,2.82-2.47,2.82-2.47l-14.46-37.39s-4.76-12.35-7.06-15.52-3.7-5.47-3.7-5.47,7.94-27.52,9.88-42.16,2.29-18.52.17-25.92-35.49-8.33-40.74-6.88S189,283,189,283Z" style="fill:#4760A1"></path><g style="clip-path:url(#freepik--clip-path-5--inject-51)"><path d="M180.25,357.74c-6,1.19-3.18-7.54-1.19-12.3s5.55-25.4,12.7-43.66c3.69-9.45,7.17-18.14,9.9-24.67a33.16,33.16,0,0,0-6.65.56c-5.25,1.44-6,5.29-6,5.29s-7.76,11.64-10.58,25.22-4.23,33.16-4.23,33.16-8.12,8.29-12.88,15.7-16.93,33-16.93,33-.18,2.82,2.82,1.41,27.34-25,32.28-32.28l1-1.46Z" style="opacity:0.2"></path><path d="M208,350.2c.79,9.13,8.34,26.2,9.53,27.79s22.62,36.11,28.18,36.91,4.41-2.22,5.18-3.89c.37-.79-1.58-7.17-3.73-13.66-2.65-3-5.76-6.36-9-9.44-8.74-8.34-23-28.58-20.64-35.72s6.74-50,7.93-54.38-15.84,9.49-15.84,9.49S207.24,341.07,208,350.2Z" style="opacity:0.2"></path></g><path d="M189,283s-7.76,11.64-10.58,25.22-4.23,33.16-4.23,33.16-8.12,8.29-12.88,15.7-16.93,33-16.93,33-.18,2.82,2.82,1.41,27.34-25,32.28-32.28,9-14.46,10.23-18,16.05-34,16.05-34l3.88.18s-1.41,28.92-.18,40.57,1.94,17.46,4.59,21,31,43.57,31,43.57a4.43,4.43,0,0,0,3,1.06c1.94,0,2.82-2.47,2.82-2.47l-14.46-37.39s-4.76-12.35-7.06-15.52-3.7-5.47-3.7-5.47,7.94-27.52,9.88-42.16,2.29-18.52.17-25.92-35.49-8.33-40.74-6.88S189,283,189,283Z" style="fill:none;stroke:#263238;stroke-linecap:round;stroke-linejoin:round;stroke-width:1.1002125520252548px"></path><path d="M203.83,216.46a46.16,46.16,0,0,1-7.58,0c-3.71-.35-6.35-2.47-9.71.89s-13.4,12.34-16.22,14.11-22.23,14.28-22.23,14.28l-7.4,5.82,1.76,3.35s21.58-8.63,29.46-13.4c11.64-7.06,16.05-9.7,16.05-9.7s1.41,12.17,4.58,17.46,7.41,15,7.41,15L188.13,284s7.06,7.4,22.75,7.58,25.58-4.23,25.58-4.23-4.23-16.76-5.47-21-3.17-9.88-3.17-9.88,3-18.87,2.11-25.93-1.58-12.87-3.52-13.75-8.47-2.83-12-1.24S203.83,216.46,203.83,216.46Z" style="fill:#fff"></path><g style="clip-path:url(#freepik--clip-path-6--inject-51)"><path d="M218,258.91c-.39-2.78-17.86-10.32-15.48-14.69s16.28-17.06,16.28-17.06l-9.62-10.58a41.12,41.12,0,0,1-5.3-.12,46.16,46.16,0,0,1-7.58,0c-3.71-.35-6.35-2.47-9.71.89s-13.4,12.34-16.22,14.11-22.23,14.28-22.23,14.28l-7.4,5.82,1.76,3.35s21.58-8.63,29.46-13.4c11.64-7.06,16.05-9.7,16.05-9.7s1.41,12.17,4.58,17.46,7.41,15,7.41,15L188.13,284a24.57,24.57,0,0,0,8.63,5.09c4.94-12.34,8.88-21.65,10.08-23.45C208.43,263.28,218.35,261.69,218,258.91Z" style="opacity:0.2"></path></g><path d="M203.83,216.46a46.16,46.16,0,0,1-7.58,0c-3.71-.35-6.35-2.47-9.71.89s-13.4,12.34-16.22,14.11-22.23,14.28-22.23,14.28l-7.4,5.82,1.76,3.35s21.58-8.63,29.46-13.4c11.64-7.06,16.05-9.7,16.05-9.7s1.41,12.17,4.58,17.46,7.41,15,7.41,15L188.13,284s7.06,7.4,22.75,7.58,25.58-4.23,25.58-4.23-4.23-16.76-5.47-21-3.17-9.88-3.17-9.88,3-18.87,2.11-25.93-1.58-12.87-3.52-13.75-8.47-2.83-12-1.24S203.83,216.46,203.83,216.46Z" style="fill:none;stroke:#263238;stroke-linecap:round;stroke-linejoin:round;stroke-width:1.1002125520252548px"></path><path d="M219,215a9.72,9.72,0,0,0-4.6.55c-3.53,1.59-10.58.88-10.58.88s-1,.09-2.45.14c-.32,1.72-1.47,9.18,2.1,12.57,4,3.84,8.89-2.83,12.12-8.09C217.13,218.6,218.25,216.53,219,215Z" style="fill:none;stroke:#263238;stroke-linecap:round;stroke-linejoin:round;stroke-width:1.1002125520252548px"></path><path d="M180.11,236.54a13.64,13.64,0,0,0-7.59-6.71c-.92.73-1.68,1.3-2.2,1.63-2.82,1.76-22.23,14.28-22.23,14.28l-7.4,5.82,1.76,3.35s21.58-8.63,29.46-13.4Z" style="fill:none;stroke:#263238;stroke-linecap:round;stroke-linejoin:round;stroke-width:1.1002125520252548px"></path><path d="M139.8,253.33l.36,33a5.77,5.77,0,0,0,5.11,3.53c4.06.35,18.52-6.53,18.52-6.53s4.06-1.59,1.06-7.76-19.58-25.75-19.58-25.75Z" style="fill:#fff;stroke:#263238;stroke-linecap:round;stroke-linejoin:round;stroke-width:1.1002125520252548px"></path><path d="M141.87,257.74l.28,26.15a4.55,4.55,0,0,0,4,2.79c3.22.28,14.68-5.17,14.68-5.17s3.22-1.26.84-6.15-15.52-20.42-15.52-20.42Z" style="fill:#4760A1"></path><path d="M139.38,241l-8.88,5.25a1.55,1.55,0,0,0-.57,2.07h0a1.56,1.56,0,0,0,1.63.79l5.95-1,1.06,2.11,6.17-1.94L143,245.39l.22-.33a2.86,2.86,0,0,0-.87-4.07h0A2.87,2.87,0,0,0,139.38,241Z" style="fill:#fff;stroke:#263238;stroke-linecap:round;stroke-linejoin:round;stroke-width:1.1002125520252548px"></path><path d="M136.45,262s1.94,1.76,3.53,1.76,4.41-1.41,3.35-2.11-.53-.18-3-.18S135.57,262,136.45,262Z" style="fill:#4760A1;stroke:#263238;stroke-linecap:round;stroke-linejoin:round;stroke-width:1.1002125520252548px"></path><path d="M133.63,259.32s.88,2.65,2.82,2.65,4.77-.35,5.12-1.94-.35-1.24-3.53-1.24S132.57,258.27,133.63,259.32Z" style="fill:#4760A1;stroke:#263238;stroke-linecap:round;stroke-linejoin:round;stroke-width:1.1002125520252548px"></path><path d="M133.63,256.68a1.84,1.84,0,0,0,.88,2.82c2.12.88,5.47.88,5.82-.71s-1.05-2.82-3-2.64S133.63,256.68,133.63,256.68Z" style="fill:#4760A1;stroke:#263238;stroke-linecap:round;stroke-linejoin:round;stroke-width:1.1002125520252548px"></path><path d="M134.16,254.39s-1.76,1.41-.53,2.29,4.94,1.41,5.29,0,1.24-3.18-.88-2.82S134.16,254.39,134.16,254.39Z" style="fill:#4760A1;stroke:#263238;stroke-linecap:round;stroke-linejoin:round;stroke-width:1.1002125520252548px"></path><path d="M51.63,265.92a18.1,18.1,0,0,1,10.56-17.25,12.36,12.36,0,0,1,23.06-8.91,9.73,9.73,0,0,1,2.18-.35h.4a11.82,11.82,0,0,1,21.84,8.9l19.74-1.95,1.18,2.81-12.4,12.15A15.77,15.77,0,0,1,99,283.93a14.34,14.34,0,0,1-28.63-.35c0-.13,0-.25,0-.37A18.1,18.1,0,0,1,51.63,265.92Z" style="opacity:0.15"></path><path d="M206.68,187.06s8,15.22,16.49,17.9a2.58,2.58,0,0,1-.42,2.54,5.4,5.4,0,0,1-2.12,1.69s-4.37,7.33-8.88,9.73-9,1.83-11.84-2.54-5.07-19.45-5.07-19.88S206.68,187.06,206.68,187.06Z" style="fill:#fff;stroke:#263238;stroke-linecap:round;stroke-linejoin:round;stroke-width:1.1002125520252548px"></path><path d="M218.94,207.5a21.72,21.72,0,0,1,2.91-3.07l-.1,0-5.49,2.4a88.49,88.49,0,0,0-10.15-3.24c-3.53-.8-8.17.71-9.81,1.32.92,4.39,2.19,9.31,3.61,11.51,2.82,4.37,7.33,4.93,11.84,2.54s8.88-9.73,8.88-9.73S218.24,208.63,218.94,207.5Z" style="fill:#4760A1;stroke:#263238;stroke-linecap:round;stroke-linejoin:round;stroke-width:1.1002125520252548px"></path><path d="M206,198.9s0,3.24-.7,3.95" style="fill:none;stroke:#263238;stroke-linecap:round;stroke-linejoin:round;stroke-width:1.1002125520252548px"></path><path d="M204.28,197.35s-3-3-4.51-2.4" style="fill:none;stroke:#263238;stroke-linecap:round;stroke-linejoin:round;stroke-width:1.1002125520252548px"></path><path d="M208.65,198.9s1.55-1.69,5.36-1.13" style="fill:none;stroke:#263238;stroke-linecap:round;stroke-linejoin:round;stroke-width:1.1002125520252548px"></path><path d="M202.45,200.31c0,.86-.28,1.55-.64,1.55s-.63-.69-.63-1.55.28-1.55.63-1.55S202.45,199.45,202.45,200.31Z" style="fill:#263238"></path><ellipse cx="210.48" cy="201.58" rx="0.63" ry="1.55" style="fill:#263238"></ellipse><path d="M229.58,228.81a22.11,22.11,0,0,0-1.76-10.93c-1.86-3.84-11.29-4.06-16.41-1.24S173.14,235,167.67,237.81s-18,7.4-18,7.4-7.05,0-8.11.53-9.35,4.77-9.17,6.35,2.29,2.3,2.82,2.3a27.53,27.53,0,0,0,2.82-.53s1.06,4.93,2.12,5.64,8.82.53,10.58-.53,5.64-8.29,5.64-8.29,34.4-9.7,38.28-11.64,10.4-6.17,14.46-6.88,13-3.17,13-3.17" style="fill:#fff"></path><g style="clip-path:url(#freepik--clip-path-7--inject-51)"><path d="M219,215l-.36-.26a17.41,17.41,0,0,0-7.24,1.87c-5.11,2.82-38.27,18.34-43.74,21.17-2,1-4.85,2.26-7.73,3.43h0s23.88-7.73,28-9.43,20.47-9.42,23.79-12.89A12.89,12.89,0,0,1,219,215Z" style="opacity:0.2"></path></g><path d="M229.58,228.81a22.11,22.11,0,0,0-1.76-10.93c-1.86-3.84-11.29-4.06-16.41-1.24S173.14,235,167.67,237.81s-18,7.4-18,7.4-7.05,0-8.11.53-9.35,4.77-9.17,6.35,2.29,2.3,2.82,2.3a27.53,27.53,0,0,0,2.82-.53s1.06,4.93,2.12,5.64,8.82.53,10.58-.53,5.64-8.29,5.64-8.29,34.4-9.7,38.28-11.64,10.4-6.17,14.46-6.88,13-3.17,13-3.17" style="fill:none;stroke:#263238;stroke-linecap:round;stroke-linejoin:round;stroke-width:1.1002125520252548px"></path><path d="M149.68,245.21s-7.05,0-8.11.53-9.35,4.77-9.17,6.35,2.29,2.3,2.82,2.3a27.53,27.53,0,0,0,2.82-.53s1.06,4.93,2.12,5.64,8.82.53,10.58-.53,5.64-8.29,5.64-8.29,20.84-5.87,31.9-9.39a15.7,15.7,0,0,0-6-10.55c-6.79,3.23-12.61,6-14.64,7.07C162.2,240.63,149.68,245.21,149.68,245.21Z" style="fill:#fff"></path><g style="clip-path:url(#freepik--clip-path-8--inject-51)"><path d="M219,215l-.36-.26a17.41,17.41,0,0,0-7.24,1.87c-5.11,2.82-38.27,18.34-43.74,21.17-2,1-4.85,2.26-7.73,3.43h0s23.88-7.73,28-9.43,20.47-9.42,23.79-12.89A12.89,12.89,0,0,1,219,215Z" style="opacity:0.2"></path></g><path d="M149.68,245.21s-7.05,0-8.11.53-9.35,4.77-9.17,6.35,2.29,2.3,2.82,2.3a27.53,27.53,0,0,0,2.82-.53s1.06,4.93,2.12,5.64,8.82.53,10.58-.53,5.64-8.29,5.64-8.29,20.84-5.87,31.9-9.39a15.7,15.7,0,0,0-6-10.55c-6.79,3.23-12.61,6-14.64,7.07C162.2,240.63,149.68,245.21,149.68,245.21Z" style="fill:none;stroke:#263238;stroke-linecap:round;stroke-linejoin:round;stroke-width:1.1002125520252548px"></path><path d="M162.5,248.94l-2.56-7.7c-5.13,2.1-10.26,4-10.26,4s-7.05,0-8.11.53-9.35,4.77-9.17,6.35,2.29,2.3,2.82,2.3a27.53,27.53,0,0,0,2.82-.53s1.06,4.93,2.12,5.64,8.82.53,10.58-.53,5.64-8.29,5.64-8.29Z" style="fill:#4760A1;stroke:#263238;stroke-linecap:round;stroke-linejoin:round;stroke-width:1.1002125520252548px"></path><path d="M138,253.86s1.77.17,4.19.17" style="fill:none;stroke:#263238;stroke-linecap:round;stroke-linejoin:round;stroke-width:1.1002125520252548px"></path><line x1="139" y1="256.05" x2="143.24" y2="256.66" style="fill:none;stroke:#263238;stroke-linecap:round;stroke-linejoin:round;stroke-width:1.1002125520252548px"></line><line x1="139.4" y1="257.87" x2="143.85" y2="258.47" style="fill:none;stroke:#263238;stroke-linecap:round;stroke-linejoin:round;stroke-width:1.1002125520252548px"></line></g><g id="freepik--Virus--inject-51"><path d="M400.68,316a4,4,0,0,0,.69.57h-6.3a4.36,4.36,0,0,0,.69-.57,4.69,4.69,0,0,0,1.26-3.17l.22-7.52c-.42-.18-1.12-.58-1.12-1,0-.68,1-1.23,2.19-1.23s2.18.55,2.18,1.23c0,.44-.79.86-1.29,1l.22,7.47A4.69,4.69,0,0,0,400.68,316Zm-9.66.09-3.57-5.78c.32-.36.75-1.05.55-1.4-.3-.53-1.32-.52-2.27,0s-1.48,1.42-1.17,2c.18.31.91.31,1.33.26l3.25,6a4.28,4.28,0,0,1,.44,3.07,3.34,3.34,0,0,1-.28.76l2.34-1.35.28-.16,2.34-1.35a4,4,0,0,1-.81-.14A4.25,4.25,0,0,1,391,316.1Zm-7.71,4.66-6.58-3.55c.11-.52.14-1.42-.25-1.64-.58-.34-1.54.24-2.15,1.28s-.62,2.17,0,2.51c.34.2,1-.2,1.41-.48l6.4,3.95a4.4,4.4,0,0,1,2.27,3.56l1.48-2.58.18-.3,1.48-2.57a4.08,4.08,0,0,1-.84.31A4.73,4.73,0,0,1,383.31,320.76Zm-1.37,8.9-6.79.2c-.16-.46-.54-1.18-.94-1.18-.62,0-1.12.89-1.12,2s.5,2,1.12,2c.36,0,.73-.63.89-1l6.84.19a4.35,4.35,0,0,1,2.88,1.15,4.15,4.15,0,0,1,.52.63v-5.73a4.15,4.15,0,0,1-.52.63A4.26,4.26,0,0,1,381.94,329.66Zm.17,9-6.36,3.93c-.4-.35-1.16-.83-1.54-.61-.58.34-.57,1.46,0,2.51s1.57,1.62,2.16,1.28c.34-.2.34-1,.29-1.46l6.62-3.57a4.63,4.63,0,0,1,3.37-.49,4.08,4.08,0,0,1,.84.31L386,338l-.18-.3-1.48-2.58a4.86,4.86,0,0,1-.15.89A4.72,4.72,0,0,1,382.11,338.66Zm7,5.64-3.23,6c-.47-.09-1.29-.12-1.49.23-.3.53.22,1.41,1.17,1.95s2,.57,2.28,0c.18-.31-.19-.94-.44-1.28l3.59-5.82a4.29,4.29,0,0,1,2.43-1.92,4,4,0,0,1,.81-.14L391.92,342l-.28-.16-2.34-1.35a3.52,3.52,0,0,1,.28.76A4.28,4.28,0,0,1,389.14,344.3Zm7.88,4.35.22,7.47c-.5.17-1.3.59-1.3,1,0,.67,1,1.22,2.19,1.22s2.19-.55,2.19-1.22c0-.4-.7-.81-1.12-1l.22-7.52a4.69,4.69,0,0,1,1.26-3.17,4.46,4.46,0,0,1,.69-.57h-6.3a5,5,0,0,1,.69.57A4.69,4.69,0,0,1,397,348.65Zm8.4-3.26,3.56,5.78c-.31.37-.75,1.06-.55,1.4.31.54,1.33.52,2.28,0s1.47-1.42,1.17-2c-.18-.32-.92-.32-1.33-.27l-3.25-6a4.33,4.33,0,0,1-.45-3.07,4.21,4.21,0,0,1,.29-.76l-2.34,1.35-.28.16-2.34,1.35a3.92,3.92,0,0,1,.8.14A4.28,4.28,0,0,1,405.42,345.39Zm7.71-4.65,6.57,3.54c-.1.52-.13,1.42.25,1.64.59.34,1.55-.24,2.16-1.28s.61-2.17,0-2.51c-.35-.2-1,.21-1.41.48l-6.41-3.95a4.74,4.74,0,0,1-2.11-2.67,4.86,4.86,0,0,1-.15-.89l-1.49,2.58-.17.3-1.49,2.58a5.51,5.51,0,0,1,.84-.32A4.71,4.71,0,0,1,413.13,340.74Zm1.37-8.91,6.79-.19c.16.45.54,1.17.94,1.17.61,0,1.11-.89,1.11-2s-.5-2-1.11-2c-.36,0-.73.63-.89,1l-6.84-.2a4.24,4.24,0,0,1-2.88-1.15,3.64,3.64,0,0,1-.52-.63v5.73a3.64,3.64,0,0,1,.52-.63A4.33,4.33,0,0,1,414.5,331.83Zm-.18-9,6.36-3.92c.4.35,1.16.82,1.55.6.58-.34.57-1.46,0-2.5s-1.56-1.62-2.15-1.29c-.35.2-.35,1-.29,1.46l-6.62,3.58a4.76,4.76,0,0,1-3.38.49,4.55,4.55,0,0,1-.84-.31l1.49,2.57.17.3,1.49,2.58a4.61,4.61,0,0,1,.15-.88A4.76,4.76,0,0,1,414.32,322.83Zm-7-5.64,3.23-6c.47.09,1.28.12,1.48-.22.31-.54-.21-1.41-1.16-2s-2-.56-2.28,0c-.18.31.19.95.44,1.28l-3.59,5.82A4.24,4.24,0,0,1,403,318a3.92,3.92,0,0,1-.8.14l2.34,1.35.28.16,2.34,1.35a3.94,3.94,0,0,1-.29-.76A4.29,4.29,0,0,1,407.3,317.19Z" style="fill:#4760A1;stroke:#263238;stroke-linecap:round;stroke-linejoin:round;stroke-width:1.1002125520252548px"></path><path d="M384.23,325.51a4.61,4.61,0,0,1,.15.88l1.48-2.58.18-.3,1.48-2.57a4.08,4.08,0,0,1-.84.31,4.73,4.73,0,0,1-3.37-.49l-2.45-1.33a20.76,20.76,0,0,0-1.12,1.94l2.37,1.46A4.74,4.74,0,0,1,384.23,325.51Z" style="fill:#263238;stroke:#263238;stroke-linecap:round;stroke-linejoin:round;stroke-width:1.1002125520252548px"></path><path d="M393.46,343.47a3.8,3.8,0,0,1,.8-.14L391.92,342l-.28-.16-2.34-1.35a3.52,3.52,0,0,1,.28.76,4.28,4.28,0,0,1-.44,3.07l-2.1,3.89a18.32,18.32,0,0,0,1.66,1l2.32-3.76A4.28,4.28,0,0,1,393.46,343.47Z" style="fill:#263238;stroke:#263238;stroke-linecap:round;stroke-linejoin:round;stroke-width:1.1002125520252548px"></path><path d="M386.68,340.25a4.08,4.08,0,0,1,.84.31L386,338l-.18-.3-1.48-2.58a4.86,4.86,0,0,1-.15.89,4.72,4.72,0,0,1-2.12,2.67l-2.37,1.47a20.6,20.6,0,0,0,1.12,1.93l2.45-1.32A4.63,4.63,0,0,1,386.68,340.25Z" style="fill:#263238;stroke:#263238;stroke-linecap:round;stroke-linejoin:round;stroke-width:1.1002125520252548px"></path><path d="M407.3,344.3a4.33,4.33,0,0,1-.45-3.07,4.21,4.21,0,0,1,.29-.76l-2.34,1.35-.28.16-2.34,1.35a3.92,3.92,0,0,1,.8.14,4.28,4.28,0,0,1,2.44,1.92l2.32,3.76a18.32,18.32,0,0,0,1.66-1Z" style="fill:#263238;stroke:#263238;stroke-linecap:round;stroke-linejoin:round;stroke-width:1.1002125520252548px"></path><path d="M400.68,345.48a4.46,4.46,0,0,1,.69-.57h-6.3a5,5,0,0,1,.69.57,4.69,4.69,0,0,1,1.26,3.17l.08,2.79c.37,0,.74,0,1.12,0s.75,0,1.11,0l.09-2.79A4.69,4.69,0,0,1,400.68,345.48Z" style="fill:#263238;stroke:#263238;stroke-linecap:round;stroke-linejoin:round;stroke-width:1.1002125520252548px"></path><path d="M412.21,336a4.86,4.86,0,0,1-.15-.89l-1.49,2.58-.17.3-1.49,2.58a5.51,5.51,0,0,1,.84-.32,4.71,4.71,0,0,1,3.38.5l2.45,1.32a20.6,20.6,0,0,0,1.12-1.93l-2.38-1.47A4.74,4.74,0,0,1,412.21,336Z" style="fill:#263238;stroke:#263238;stroke-linecap:round;stroke-linejoin:round;stroke-width:1.1002125520252548px"></path><path d="M411.62,328.51a3.64,3.64,0,0,1-.52-.63v5.73a3.64,3.64,0,0,1,.52-.63,4.33,4.33,0,0,1,2.88-1.15l4.42-.12c0-.32,0-.64,0-1s0-.65,0-1l-4.42-.13A4.24,4.24,0,0,1,411.62,328.51Z" style="fill:#263238;stroke:#263238;stroke-linecap:round;stroke-linejoin:round;stroke-width:1.1002125520252548px"></path><path d="M384.82,333a4.15,4.15,0,0,1,.52.63v-5.73a4.15,4.15,0,0,1-.52.63,4.26,4.26,0,0,1-2.88,1.15l-4.42.13c0,.32,0,.63,0,1s0,.64,0,1l4.42.12A4.35,4.35,0,0,1,384.82,333Z" style="fill:#263238;stroke:#263238;stroke-linecap:round;stroke-linejoin:round;stroke-width:1.1002125520252548px"></path><path d="M409.75,321.25a4.55,4.55,0,0,1-.84-.31l1.49,2.57.17.3,1.49,2.58a4.61,4.61,0,0,1,.15-.88,4.76,4.76,0,0,1,2.11-2.68l2.38-1.46a20.76,20.76,0,0,0-1.12-1.94l-2.45,1.33A4.76,4.76,0,0,1,409.75,321.25Z" style="fill:#263238;stroke:#263238;stroke-linecap:round;stroke-linejoin:round;stroke-width:1.1002125520252548px"></path><path d="M403,318a3.92,3.92,0,0,1-.8.14l2.34,1.35.28.16,2.34,1.35a3.94,3.94,0,0,1-.29-.76,4.29,4.29,0,0,1,.45-3.07l2.1-3.89c-.54-.34-1.09-.67-1.66-1l-2.32,3.76A4.24,4.24,0,0,1,403,318Z" style="fill:#263238;stroke:#263238;stroke-linecap:round;stroke-linejoin:round;stroke-width:1.1002125520252548px"></path><path d="M395.76,316a4.36,4.36,0,0,1-.69.57h6.3a4,4,0,0,1-.69-.57,4.69,4.69,0,0,1-1.26-3.17l-.09-2.79q-.56,0-1.11,0c-.38,0-.75,0-1.12,0l-.08,2.79A4.69,4.69,0,0,1,395.76,316Z" style="fill:#263238;stroke:#263238;stroke-linecap:round;stroke-linejoin:round;stroke-width:1.1002125520252548px"></path><path d="M389.14,317.19a4.28,4.28,0,0,1,.44,3.07,3.34,3.34,0,0,1-.28.76l2.34-1.35.28-.16,2.34-1.35a4,4,0,0,1-.81-.14A4.25,4.25,0,0,1,391,316.1l-2.32-3.76c-.57.29-1.13.62-1.66,1Z" style="fill:#263238;stroke:#263238;stroke-linecap:round;stroke-linejoin:round;stroke-width:1.1002125520252548px"></path><circle cx="398.22" cy="330.75" r="19.04" transform="translate(-47.61 67.67) rotate(-9.17)" style="fill:#263238;stroke:#263238;stroke-linecap:round;stroke-linejoin:round;stroke-width:1.1002125520252548px"></circle><path d="M399.7,316.21a2,2,0,1,1-2-1.87A1.91,1.91,0,0,1,399.7,316.21Z" style="fill:#4760A1"></path><path d="M387.86,331.31a2,2,0,1,1-2-1.87A1.91,1.91,0,0,1,387.86,331.31Z" style="fill:#4760A1"></path><path d="M396.63,326.45a2,2,0,1,1-2-1.86A1.92,1.92,0,0,1,396.63,326.45Z" style="fill:#4760A1"></path><ellipse cx="390.1" cy="342.7" rx="1.96" ry="1.87" style="fill:#4760A1"></ellipse><path d="M413.44,334.85a2,2,0,1,1-2-1.86A1.91,1.91,0,0,1,413.44,334.85Z" style="fill:#4760A1"></path><path d="M399.41,337.41a2,2,0,1,1-2-1.87A1.91,1.91,0,0,1,399.41,337.41Z" style="fill:#4760A1"></path><path d="M405.75,329.94a2,2,0,1,1-2-1.87A1.91,1.91,0,0,1,405.75,329.94Z" style="fill:#4760A1"></path><path d="M410.49,321.24a2,2,0,1,1-2-1.87A1.92,1.92,0,0,1,410.49,321.24Z" style="fill:#4760A1"></path><path d="M406,343.63a2,2,0,1,1-2-1.87A1.92,1.92,0,0,1,406,343.63Z" style="fill:#4760A1"></path><path d="M389.91,319.54a2,2,0,1,1-2-1.86A1.91,1.91,0,0,1,389.91,319.54Z" style="fill:#4760A1"></path><path d="M391.9,155.69a3.22,3.22,0,0,0,.52.43H387.7a3.22,3.22,0,0,0,.52-.43,3.48,3.48,0,0,0,.94-2.37l.17-5.64c-.32-.13-.84-.43-.84-.73,0-.51.73-.92,1.63-.92s1.64.41,1.64.92c0,.33-.59.64-1,.77l.17,5.6A3.48,3.48,0,0,0,391.9,155.69Zm-7.23.07L382,151.43c.24-.27.56-.79.41-1.05s-1-.39-1.7,0-1.11,1.07-.88,1.47c.14.24.69.24,1,.2l2.43,4.51a3.19,3.19,0,0,1,.34,2.3,3.28,3.28,0,0,1-.21.57l1.75-1,.21-.12,1.75-1a2.9,2.9,0,0,1-.6-.11A3.17,3.17,0,0,1,384.67,155.76Zm-5.78,3.49L374,156.59c.08-.39.1-1.06-.19-1.22s-1.16.17-1.61,1-.46,1.62,0,1.87c.26.15.79-.15,1.06-.35l4.8,3a3.45,3.45,0,0,1,1.58,2,3.5,3.5,0,0,1,.12.66l1.11-1.93.13-.22,1.12-1.93a3.74,3.74,0,0,1-.63.23A3.5,3.5,0,0,1,378.89,159.25Zm-1,6.67-5.09.15c-.12-.34-.4-.88-.7-.88-.46,0-.84.66-.84,1.49s.38,1.49.84,1.49c.27,0,.54-.48.66-.77l5.13.15a3.23,3.23,0,0,1,2.16.86,3,3,0,0,1,.39.47v-4.29a2.63,2.63,0,0,1-.39.47A3.18,3.18,0,0,1,377.86,165.92Zm.13,6.75-4.77,2.94c-.29-.26-.86-.62-1.15-.45s-.43,1.09,0,1.87,1.18,1.22,1.62,1c.26-.15.26-.75.21-1.09l5-2.68a3.6,3.6,0,0,1,2.53-.37,3.83,3.83,0,0,1,.63.24l-1.12-1.93-.13-.23L379.69,170a3.23,3.23,0,0,1-.12.66A3.47,3.47,0,0,1,378,172.67Zm5.26,4.22-2.41,4.49c-.36-.07-1-.1-1.12.16s.16,1.06.87,1.47,1.48.42,1.71,0c.14-.23-.14-.71-.33-1l2.7-4.36a3.18,3.18,0,0,1,1.82-1.44,2.89,2.89,0,0,1,.6-.1l-1.75-1-.21-.12-1.75-1a3.71,3.71,0,0,1,.21.58A3.17,3.17,0,0,1,383.25,176.89Zm5.91,3.26.17,5.6c-.38.13-1,.45-1,.78,0,.5.73.91,1.63.91s1.64-.41,1.64-.91c0-.3-.52-.6-.84-.74l.17-5.64a3.52,3.52,0,0,1,.94-2.37,3.22,3.22,0,0,1,.52-.43H387.7a3.22,3.22,0,0,1,.52.43A3.52,3.52,0,0,1,389.16,180.15Zm6.29-2.44,2.68,4.33c-.24.27-.57.79-.42,1.05s1,.39,1.71,0,1.1-1.07.87-1.47c-.13-.23-.68-.23-1-.19l-2.44-4.52a3.22,3.22,0,0,1-.33-2.29,3.71,3.71,0,0,1,.21-.58L395,175l-.21.12-1.75,1a2.89,2.89,0,0,1,.6.1A3.21,3.21,0,0,1,395.45,177.71Zm5.78-3.49,4.93,2.66c-.08.39-.1,1.06.19,1.23s1.16-.18,1.61-1,.46-1.63,0-1.88c-.26-.15-.78.15-1.05.36l-4.8-3a3.53,3.53,0,0,1-1.59-2,4.13,4.13,0,0,1-.11-.66l-1.11,1.93-.13.23-1.12,1.93a3.51,3.51,0,0,1,.63-.24A3.6,3.6,0,0,1,401.23,174.22Zm1-6.67,5.09-.15c.11.35.4.89.7.89.46,0,.84-.67.84-1.49s-.38-1.49-.84-1.49c-.27,0-.54.47-.67.76l-5.12-.15a3.18,3.18,0,0,1-2.16-.86,2.63,2.63,0,0,1-.39-.47v4.29a3,3,0,0,1,.39-.47A3.23,3.23,0,0,1,402.26,167.55Zm-.13-6.74,4.76-2.94c.3.26.87.61,1.16.45s.43-1.1,0-1.88-1.17-1.21-1.61-1c-.26.15-.26.75-.22,1.09l-5,2.68a3.5,3.5,0,0,1-2.53.37,3.45,3.45,0,0,1-.63-.23l1.12,1.93.13.22,1.11,1.93a4.54,4.54,0,0,1,.11-.66A3.51,3.51,0,0,1,402.13,160.81Zm-5.27-4.23,2.42-4.48c.36.07,1,.09,1.12-.17s-.16-1.06-.88-1.47-1.47-.42-1.7,0c-.14.24.14.71.32,1l-2.69,4.36a3.17,3.17,0,0,1-1.82,1.44,2.9,2.9,0,0,1-.6.11l1.75,1,.21.12,1.75,1a3.28,3.28,0,0,1-.21-.57A3.24,3.24,0,0,1,396.86,156.58Z" style="fill:#4760A1;stroke:#263238;stroke-linecap:round;stroke-linejoin:round;stroke-width:1.1002125520252548px"></path><path d="M379.57,162.81a3.5,3.5,0,0,1,.12.66l1.11-1.93.13-.22,1.12-1.93a3.74,3.74,0,0,1-.63.23,3.5,3.5,0,0,1-2.53-.37l-1.84-1a16.07,16.07,0,0,0-.84,1.45l1.78,1.1A3.45,3.45,0,0,1,379.57,162.81Z" style="fill:#263238;stroke:#263238;stroke-linecap:round;stroke-linejoin:round;stroke-width:1.1002125520252548px"></path><path d="M386.49,176.27a2.89,2.89,0,0,1,.6-.1l-1.75-1-.21-.12-1.75-1a3.71,3.71,0,0,1,.21.58,3.17,3.17,0,0,1-.34,2.29l-1.57,2.92a14,14,0,0,0,1.25.72l1.74-2.82A3.18,3.18,0,0,1,386.49,176.27Z" style="fill:#263238;stroke:#263238;stroke-linecap:round;stroke-linejoin:round;stroke-width:1.1002125520252548px"></path><path d="M381.42,173.85a3.83,3.83,0,0,1,.63.24l-1.12-1.93-.13-.23L379.69,170a3.23,3.23,0,0,1-.12.66,3.47,3.47,0,0,1-1.58,2l-1.78,1.1a15.9,15.9,0,0,0,.84,1.44l1.84-1A3.6,3.6,0,0,1,381.42,173.85Z" style="fill:#263238;stroke:#263238;stroke-linecap:round;stroke-linejoin:round;stroke-width:1.1002125520252548px"></path><path d="M396.86,176.89a3.22,3.22,0,0,1-.33-2.29,3.71,3.71,0,0,1,.21-.58L395,175l-.21.12-1.75,1a2.89,2.89,0,0,1,.6.1,3.21,3.21,0,0,1,1.82,1.44l1.74,2.82c.43-.22.84-.46,1.25-.72Z" style="fill:#263238;stroke:#263238;stroke-linecap:round;stroke-linejoin:round;stroke-width:1.1002125520252548px"></path><path d="M391.9,177.78a3.22,3.22,0,0,1,.52-.43H387.7a3.22,3.22,0,0,1,.52.43,3.52,3.52,0,0,1,.94,2.37l.06,2.09.84,0,.84,0,.06-2.09A3.52,3.52,0,0,1,391.9,177.78Z" style="fill:#263238;stroke:#263238;stroke-linecap:round;stroke-linejoin:round;stroke-width:1.1002125520252548px"></path><path d="M400.54,170.66a4.13,4.13,0,0,1-.11-.66l-1.11,1.93-.13.23-1.12,1.93a3.51,3.51,0,0,1,.63-.24,3.6,3.6,0,0,1,2.53.37l1.84,1c.3-.46.58-1,.84-1.44l-1.78-1.1A3.53,3.53,0,0,1,400.54,170.66Z" style="fill:#263238;stroke:#263238;stroke-linecap:round;stroke-linejoin:round;stroke-width:1.1002125520252548px"></path><path d="M400.1,165.06a2.63,2.63,0,0,1-.39-.47v4.29a3,3,0,0,1,.39-.47,3.23,3.23,0,0,1,2.16-.86l3.31-.09c0-.24,0-.48,0-.72s0-.48,0-.72l-3.31-.1A3.18,3.18,0,0,1,400.1,165.06Z" style="fill:#263238;stroke:#263238;stroke-linecap:round;stroke-linejoin:round;stroke-width:1.1002125520252548px"></path><path d="M380,168.41a3,3,0,0,1,.39.47v-4.29a2.63,2.63,0,0,1-.39.47,3.18,3.18,0,0,1-2.16.86l-3.31.1c0,.24,0,.48,0,.72s0,.48,0,.72l3.31.09A3.23,3.23,0,0,1,380,168.41Z" style="fill:#263238;stroke:#263238;stroke-linecap:round;stroke-linejoin:round;stroke-width:1.1002125520252548px"></path><path d="M398.7,159.62a3.45,3.45,0,0,1-.63-.23l1.12,1.93.13.22,1.11,1.93a4.54,4.54,0,0,1,.11-.66,3.51,3.51,0,0,1,1.59-2l1.78-1.1c-.26-.5-.54-1-.84-1.45l-1.84,1A3.5,3.5,0,0,1,398.7,159.62Z" style="fill:#263238;stroke:#263238;stroke-linecap:round;stroke-linejoin:round;stroke-width:1.1002125520252548px"></path><path d="M393.63,157.2a2.9,2.9,0,0,1-.6.11l1.75,1,.21.12,1.75,1a3.28,3.28,0,0,1-.21-.57,3.24,3.24,0,0,1,.33-2.3l1.58-2.92c-.41-.26-.82-.5-1.25-.72l-1.74,2.82A3.17,3.17,0,0,1,393.63,157.2Z" style="fill:#263238;stroke:#263238;stroke-linecap:round;stroke-linejoin:round;stroke-width:1.1002125520252548px"></path><path d="M388.22,155.69a3.22,3.22,0,0,1-.52.43h4.72a3.22,3.22,0,0,1-.52-.43,3.48,3.48,0,0,1-.94-2.37l-.06-2.09c-.28,0-.56,0-.84,0s-.56,0-.84,0l-.06,2.09A3.48,3.48,0,0,1,388.22,155.69Z" style="fill:#263238;stroke:#263238;stroke-linecap:round;stroke-linejoin:round;stroke-width:1.1002125520252548px"></path><path d="M383.25,156.58a3.19,3.19,0,0,1,.34,2.3,3.28,3.28,0,0,1-.21.57l1.75-1,.21-.12,1.75-1a2.9,2.9,0,0,1-.6-.11,3.17,3.17,0,0,1-1.82-1.44l-1.74-2.82c-.43.22-.85.47-1.25.72Z" style="fill:#263238;stroke:#263238;stroke-linecap:round;stroke-linejoin:round;stroke-width:1.1002125520252548px"></path><circle cx="390.06" cy="166.74" r="14.27" transform="translate(-21.6 64.36) rotate(-9.18)" style="fill:#263238;stroke:#263238;stroke-linecap:round;stroke-linejoin:round;stroke-width:1.1002125520252548px"></circle><path d="M391.17,155.84a1.47,1.47,0,1,1-1.47-1.4A1.44,1.44,0,0,1,391.17,155.84Z" style="fill:#4760A1"></path><ellipse cx="380.82" cy="167.16" rx="1.47" ry="1.4" style="fill:#4760A1"></ellipse><path d="M388.87,163.52a1.47,1.47,0,1,1-1.47-1.4A1.44,1.44,0,0,1,388.87,163.52Z" style="fill:#4760A1"></path><path d="M385.44,175.69a1.47,1.47,0,1,1-1.47-1.4A1.44,1.44,0,0,1,385.44,175.69Z" style="fill:#4760A1"></path><path d="M401.46,169.82a1.47,1.47,0,1,1-1.47-1.4A1.43,1.43,0,0,1,401.46,169.82Z" style="fill:#4760A1"></path><ellipse cx="389.48" cy="171.73" rx="1.47" ry="1.4" style="fill:#4760A1"></ellipse><path d="M395.71,166.13a1.47,1.47,0,1,1-1.47-1.4A1.44,1.44,0,0,1,395.71,166.13Z" style="fill:#4760A1"></path><ellipse cx="397.79" cy="159.61" rx="1.47" ry="1.4" style="fill:#4760A1"></ellipse><path d="M395.87,176.39a1.47,1.47,0,1,1-1.47-1.4A1.44,1.44,0,0,1,395.87,176.39Z" style="fill:#4760A1"></path><path d="M383.83,158.34a1.47,1.47,0,1,1-1.47-1.4A1.43,1.43,0,0,1,383.83,158.34Z" style="fill:#4760A1"></path><path d="M116.09,343.88a4.36,4.36,0,0,0,.69.57h-6.3a4.36,4.36,0,0,0,.69-.57,4.69,4.69,0,0,0,1.26-3.17l.22-7.52c-.42-.18-1.12-.58-1.12-1,0-.68,1-1.22,2.19-1.22s2.18.54,2.18,1.22c0,.44-.79.86-1.29,1l.22,7.47A4.67,4.67,0,0,0,116.09,343.88Zm-9.66.1-3.56-5.79c.31-.36.75-1.05.55-1.4-.31-.53-1.33-.52-2.28,0s-1.47,1.43-1.17,2c.18.31.92.31,1.33.26l3.25,6a4.28,4.28,0,0,1,.44,3.07,3.6,3.6,0,0,1-.28.77l2.34-1.36.28-.16,2.34-1.35a3.82,3.82,0,0,1-.8-.13A4.32,4.32,0,0,1,106.43,344Zm-7.71,4.65-6.57-3.55c.1-.52.13-1.41-.25-1.63-.59-.34-1.55.23-2.16,1.28s-.62,2.16,0,2.5c.35.2,1-.2,1.41-.48l6.41,3.95a4.41,4.41,0,0,1,2.26,3.56l1.48-2.57.18-.31,1.49-2.57a4.55,4.55,0,0,1-.84.31A4.7,4.7,0,0,1,98.72,348.63Zm-1.37,8.9-6.79.2c-.16-.46-.54-1.18-.94-1.18-.62,0-1.11.89-1.11,2s.49,2,1.11,2c.36,0,.73-.64.89-1l6.84.2a4.28,4.28,0,0,1,2.88,1.14,4.15,4.15,0,0,1,.52.63v-5.72a4.61,4.61,0,0,1-.52.62A4.24,4.24,0,0,1,97.35,357.53Zm.18,9-6.36,3.93c-.4-.35-1.16-.83-1.55-.61-.58.34-.57,1.46,0,2.51s1.56,1.62,2.15,1.28c.34-.2.34-1,.29-1.46l6.62-3.57a4.7,4.7,0,0,1,3.38-.49,4.55,4.55,0,0,1,.84.31l-1.49-2.58-.18-.3L99.79,363a4.39,4.39,0,0,1-2.26,3.55Zm7,5.64-3.23,6c-.47-.09-1.28-.12-1.49.23-.3.53.22,1.41,1.17,2s2,.56,2.28,0c.18-.32-.19-.95-.44-1.28l3.59-5.83a4.28,4.28,0,0,1,2.44-1.92,3.8,3.8,0,0,1,.8-.14l-2.34-1.35-.28-.16-2.34-1.35a3.6,3.6,0,0,1,.28.77A4.26,4.26,0,0,1,104.55,372.17Zm7.88,4.35.22,7.47c-.5.18-1.29.6-1.29,1,0,.67,1,1.22,2.18,1.22s2.19-.55,2.19-1.22c0-.4-.7-.8-1.12-1l.22-7.53a4.65,4.65,0,0,1,1.26-3.16,4.41,4.41,0,0,1,.69-.58h-6.3a4.41,4.41,0,0,1,.69.58A4.65,4.65,0,0,1,112.43,376.52Zm8.4-3.26,3.56,5.78c-.31.37-.75,1.06-.54,1.41.3.53,1.32.52,2.27,0s1.48-1.43,1.17-2c-.18-.32-.91-.32-1.33-.26l-3.25-6a4.26,4.26,0,0,1-.44-3.06,3.6,3.6,0,0,1,.28-.77l-2.34,1.35-.28.16-2.34,1.35a3.8,3.8,0,0,1,.8.14A4.28,4.28,0,0,1,120.83,373.26Zm7.71-4.65,6.58,3.54c-.11.52-.14,1.42.24,1.64.59.34,1.55-.23,2.16-1.28s.62-2.17,0-2.5c-.35-.2-1,.2-1.41.47l-6.4-4a4.69,4.69,0,0,1-2.12-2.67,4.75,4.75,0,0,1-.15-.88L126,365.55l-.18.3-1.49,2.58a4.55,4.55,0,0,1,.84-.31A4.7,4.7,0,0,1,128.54,368.61Zm1.37-8.9,6.79-.2c.16.46.54,1.18.94,1.18.62,0,1.11-.89,1.11-2s-.49-2-1.11-2c-.36,0-.73.63-.89,1l-6.84-.2a4.24,4.24,0,0,1-2.88-1.15,4.61,4.61,0,0,1-.52-.62v5.72a4.15,4.15,0,0,1,.52-.63A4.28,4.28,0,0,1,129.91,359.71Zm-.18-9,6.37-3.92c.39.35,1.16.82,1.54.6.58-.33.57-1.46,0-2.5s-1.56-1.62-2.15-1.28c-.34.2-.34,1-.29,1.46l-6.62,3.57a4.7,4.7,0,0,1-3.38.49,4.55,4.55,0,0,1-.84-.31l1.49,2.57.18.31,1.48,2.57a4.41,4.41,0,0,1,2.26-3.56Zm-7-5.63,3.23-6c.47.1,1.29.13,1.49-.22.3-.53-.22-1.41-1.17-2s-2-.56-2.28,0c-.18.31.19.95.44,1.28L120.83,344a4.32,4.32,0,0,1-2.44,1.92,3.82,3.82,0,0,1-.8.13l2.34,1.35.28.16,2.34,1.36a3.6,3.6,0,0,1-.28-.77A4.25,4.25,0,0,1,122.71,345.07Z" style="fill:#4760A1;stroke:#263238;stroke-linecap:round;stroke-linejoin:round;stroke-width:1.1002125520252548px"></path><path d="M99.64,353.38a4.75,4.75,0,0,1,.15.88l1.48-2.57.18-.31,1.49-2.57a4.55,4.55,0,0,1-.84.31,4.7,4.7,0,0,1-3.38-.49l-2.45-1.32a19.4,19.4,0,0,0-1.12,1.93l2.38,1.46A4.76,4.76,0,0,1,99.64,353.38Z" style="fill:#263238;stroke:#263238;stroke-linecap:round;stroke-linejoin:round;stroke-width:1.1002125520252548px"></path><path d="M108.87,371.34a3.8,3.8,0,0,1,.8-.14l-2.34-1.35-.28-.16-2.34-1.35a3.6,3.6,0,0,1,.28.77,4.26,4.26,0,0,1-.44,3.06l-2.1,3.89c.54.35,1.09.67,1.66,1l2.32-3.77A4.28,4.28,0,0,1,108.87,371.34Z" style="fill:#263238;stroke:#263238;stroke-linecap:round;stroke-linejoin:round;stroke-width:1.1002125520252548px"></path><path d="M102.1,368.12a4.55,4.55,0,0,1,.84.31l-1.49-2.58-.18-.3L99.79,363a4.39,4.39,0,0,1-2.26,3.55L95.15,368a20.6,20.6,0,0,0,1.12,1.93l2.45-1.32A4.7,4.7,0,0,1,102.1,368.12Z" style="fill:#263238;stroke:#263238;stroke-linecap:round;stroke-linejoin:round;stroke-width:1.1002125520252548px"></path><path d="M122.71,372.17a4.26,4.26,0,0,1-.44-3.06,3.6,3.6,0,0,1,.28-.77l-2.34,1.35-.28.16-2.34,1.35a3.8,3.8,0,0,1,.8.14,4.28,4.28,0,0,1,2.44,1.92l2.32,3.77c.57-.3,1.12-.62,1.66-1Z" style="fill:#263238;stroke:#263238;stroke-linecap:round;stroke-linejoin:round;stroke-width:1.1002125520252548px"></path><path d="M116.09,373.36a4.41,4.41,0,0,1,.69-.58h-6.3a4.41,4.41,0,0,1,.69.58,4.65,4.65,0,0,1,1.26,3.16l.08,2.79c.37,0,.75,0,1.12,0s.75,0,1.12,0l.08-2.79A4.65,4.65,0,0,1,116.09,373.36Z" style="fill:#263238;stroke:#263238;stroke-linecap:round;stroke-linejoin:round;stroke-width:1.1002125520252548px"></path><path d="M127.62,363.86a4.75,4.75,0,0,1-.15-.88L126,365.55l-.18.3-1.49,2.58a4.55,4.55,0,0,1,.84-.31,4.7,4.7,0,0,1,3.38.49l2.45,1.32a20.6,20.6,0,0,0,1.12-1.93l-2.37-1.47A4.69,4.69,0,0,1,127.62,363.86Z" style="fill:#263238;stroke:#263238;stroke-linecap:round;stroke-linejoin:round;stroke-width:1.1002125520252548px"></path><path d="M127,356.38a4.61,4.61,0,0,1-.52-.62v5.72a4.15,4.15,0,0,1,.52-.63,4.28,4.28,0,0,1,2.88-1.14l4.42-.13q0-.48,0-1t0-1l-4.42-.13A4.24,4.24,0,0,1,127,356.38Z" style="fill:#263238;stroke:#263238;stroke-linecap:round;stroke-linejoin:round;stroke-width:1.1002125520252548px"></path><path d="M100.23,360.85a4.15,4.15,0,0,1,.52.63v-5.72a4.61,4.61,0,0,1-.52.62,4.24,4.24,0,0,1-2.88,1.15l-4.42.13c0,.32,0,.64,0,1s0,.64,0,1l4.42.13A4.28,4.28,0,0,1,100.23,360.85Z" style="fill:#263238;stroke:#263238;stroke-linecap:round;stroke-linejoin:round;stroke-width:1.1002125520252548px"></path><path d="M125.16,349.12a4.55,4.55,0,0,1-.84-.31l1.49,2.57.18.31,1.48,2.57a4.41,4.41,0,0,1,2.26-3.56l2.38-1.46a19.4,19.4,0,0,0-1.12-1.93l-2.45,1.32A4.7,4.7,0,0,1,125.16,349.12Z" style="fill:#263238;stroke:#263238;stroke-linecap:round;stroke-linejoin:round;stroke-width:1.1002125520252548px"></path><path d="M118.39,345.9a3.82,3.82,0,0,1-.8.13l2.34,1.35.28.16,2.34,1.36a3.6,3.6,0,0,1-.28-.77,4.28,4.28,0,0,1,.44-3.07l2.1-3.89c-.54-.34-1.09-.66-1.66-1L120.83,344A4.32,4.32,0,0,1,118.39,345.9Z" style="fill:#263238;stroke:#263238;stroke-linecap:round;stroke-linejoin:round;stroke-width:1.1002125520252548px"></path><path d="M111.17,343.88a4.36,4.36,0,0,1-.69.57h6.3a4.36,4.36,0,0,1-.69-.57,4.67,4.67,0,0,1-1.26-3.17l-.08-2.79c-.37,0-.75,0-1.12,0s-.75,0-1.12,0l-.08,2.79A4.69,4.69,0,0,1,111.17,343.88Z" style="fill:#263238;stroke:#263238;stroke-linecap:round;stroke-linejoin:round;stroke-width:1.1002125520252548px"></path><path d="M104.55,345.06a4.28,4.28,0,0,1,.44,3.07,3.6,3.6,0,0,1-.28.77l2.34-1.36.28-.16,2.34-1.35a3.82,3.82,0,0,1-.8-.13,4.32,4.32,0,0,1-2.44-1.92l-2.32-3.77c-.57.3-1.12.62-1.66,1Z" style="fill:#263238;stroke:#263238;stroke-linecap:round;stroke-linejoin:round;stroke-width:1.1002125520252548px"></path><circle cx="113.63" cy="358.62" r="19.04" transform="matrix(0.16, -0.99, 0.99, 0.16, -258.51, 413.66)" style="fill:#263238;stroke:#263238;stroke-linecap:round;stroke-linejoin:round;stroke-width:1.1002125520252548px"></circle><path d="M115.11,344.08a2,2,0,1,1-2-1.87A1.92,1.92,0,0,1,115.11,344.08Z" style="fill:#4760A1"></path><path d="M103.27,359.18a2,2,0,1,1-2-1.87A1.92,1.92,0,0,1,103.27,359.18Z" style="fill:#4760A1"></path><path d="M112,354.32a2,2,0,1,1-2-1.86A1.91,1.91,0,0,1,112,354.32Z" style="fill:#4760A1"></path><path d="M107.47,370.57a2,2,0,1,1-2-1.87A1.92,1.92,0,0,1,107.47,370.57Z" style="fill:#4760A1"></path><path d="M128.85,362.73a2,2,0,1,1-2-1.87A1.91,1.91,0,0,1,128.85,362.73Z" style="fill:#4760A1"></path><path d="M114.82,365.28a2,2,0,1,1-2-1.87A1.91,1.91,0,0,1,114.82,365.28Z" style="fill:#4760A1"></path><ellipse cx="119.21" cy="357.81" rx="1.96" ry="1.87" style="fill:#4760A1"></ellipse><path d="M125.9,349.11a2,2,0,1,1-2-1.87A1.91,1.91,0,0,1,125.9,349.11Z" style="fill:#4760A1"></path><ellipse cx="119.42" cy="371.5" rx="1.96" ry="1.87" style="fill:#4760A1"></ellipse><path d="M105.32,347.42a2,2,0,1,1-2-1.87A1.91,1.91,0,0,1,105.32,347.42Z" style="fill:#4760A1"></path><path d="M174.55,105.46a5.59,5.59,0,0,0,.82.68H167.9a5.24,5.24,0,0,0,2.32-4.44l.25-8.93c-.5-.21-1.33-.69-1.33-1.16,0-.8,1.17-1.45,2.6-1.45s2.59.65,2.59,1.45c0,.52-.94,1-1.53,1.23l.26,8.86A5.58,5.58,0,0,0,174.55,105.46Zm-11.46.11-4.23-6.86c.38-.43.89-1.25.65-1.66-.36-.64-1.57-.62-2.7,0s-1.75,1.69-1.38,2.32c.21.38,1.08.38,1.57.32l3.86,7.14a5.12,5.12,0,0,1,.53,3.65,5,5,0,0,1-.34.9l2.78-1.6.33-.19,2.77-1.61a4.71,4.71,0,0,1-1-.16A5.07,5.07,0,0,1,163.09,105.57Zm-9.15,5.53-7.8-4.21c.12-.62.16-1.68-.3-2-.69-.4-1.84.28-2.55,1.52s-.74,2.58,0,3c.41.23,1.24-.24,1.67-.57l7.6,4.69a5.53,5.53,0,0,1,2.51,3.17,5.75,5.75,0,0,1,.18,1l1.76-3.06.21-.36,1.76-3a6,6,0,0,1-1,.37A5.62,5.62,0,0,1,153.94,111.1Zm-1.62,10.56-8.06.23c-.19-.54-.64-1.39-1.12-1.39-.73,0-1.32,1-1.32,2.36s.59,2.36,1.32,2.36c.43,0,.86-.76,1.06-1.21l8.12.23a5.09,5.09,0,0,1,3.41,1.36,4.67,4.67,0,0,1,.62.75v-6.8a4.67,4.67,0,0,1-.62.75A5.09,5.09,0,0,1,152.32,121.66Zm.2,10.69L145,137c-.47-.41-1.37-1-1.83-.72-.69.41-.67,1.74,0,3s1.86,1.92,2.56,1.52c.41-.24.41-1.19.34-1.73l7.86-4.24a5.63,5.63,0,0,1,4-.59,6,6,0,0,1,1,.37l-1.76-3.05-.21-.36-1.76-3.06a5.61,5.61,0,0,1-.18,1A5.55,5.55,0,0,1,152.52,132.35Zm8.34,6.69L157,146.13c-.56-.11-1.53-.14-1.77.27-.36.63.26,1.67,1.39,2.33s2.33.66,2.7,0c.21-.37-.22-1.12-.52-1.52l4.26-6.91a5.07,5.07,0,0,1,2.89-2.28,4.71,4.71,0,0,1,1-.16l-2.77-1.61-.33-.19-2.78-1.6a4.73,4.73,0,0,1-.19,4.55Zm9.36,5.16.25,8.87c-.59.2-1.53.7-1.53,1.22,0,.81,1.16,1.46,2.59,1.46s2.6-.65,2.6-1.46c0-.47-.83-.95-1.33-1.16l.26-8.93a5.21,5.21,0,0,1,2.31-4.44H167.9a5.59,5.59,0,0,1,.82.68A5.66,5.66,0,0,1,170.22,144.2Zm10-3.87,4.23,6.86c-.38.43-.89,1.25-.65,1.67.36.63,1.57.61,2.7,0s1.75-1.69,1.39-2.32c-.22-.38-1.09-.38-1.58-.32L182.41,139a5,5,0,0,1-.52-3.64,4.36,4.36,0,0,1,.33-.91l-2.78,1.6-.32.19-2.78,1.61a4.71,4.71,0,0,1,.95.16A5.07,5.07,0,0,1,180.18,140.33Zm9.15-5.52,7.8,4.2c-.12.62-.15,1.69.3,2,.69.4,1.84-.28,2.56-1.52s.73-2.57,0-3c-.41-.23-1.23.25-1.67.57l-7.6-4.68a5.59,5.59,0,0,1-2.51-3.18,5.75,5.75,0,0,1-.18-1l-1.76,3.06-.21.36-1.76,3.05a6,6,0,0,1,1-.37A5.63,5.63,0,0,1,189.33,134.81ZM191,124.24,199,124c.18.54.64,1.39,1.11,1.39.73,0,1.32-1.05,1.32-2.35s-.59-2.36-1.32-2.36c-.43,0-.86.75-1.06,1.2l-8.11-.23a5.09,5.09,0,0,1-3.42-1.36,4.67,4.67,0,0,1-.62-.75v6.8a4.67,4.67,0,0,1,.62-.75A5.09,5.09,0,0,1,191,124.24Zm-.21-10.68,7.55-4.66c.47.41,1.37,1,1.83.72.69-.4.68-1.74,0-3s-1.86-1.92-2.56-1.52c-.41.24-.41,1.19-.34,1.74l-7.86,4.24a5.62,5.62,0,0,1-4,.58,6,6,0,0,1-1-.37l1.76,3,.21.36,1.76,3.06a5.75,5.75,0,0,1,.18-1A5.57,5.57,0,0,1,190.75,113.56Zm-8.34-6.69,3.83-7.1c.56.11,1.53.14,1.77-.27.36-.63-.26-1.67-1.38-2.32s-2.34-.67-2.71,0c-.21.37.22,1.13.52,1.52l-4.26,6.91a5.07,5.07,0,0,1-2.89,2.28,4.71,4.71,0,0,1-.95.16l2.78,1.61.32.19,2.78,1.6a4.17,4.17,0,0,1-.33-.91A5,5,0,0,1,182.41,106.87Z" style="fill:#4760A1;stroke:#263238;stroke-linecap:round;stroke-linejoin:round;stroke-width:1.1002125520252548px"></path><path d="M155,116.73a5.75,5.75,0,0,1,.18,1l1.76-3.06.21-.36,1.76-3a6,6,0,0,1-1,.37,5.62,5.62,0,0,1-4-.58L151,109.53a25.8,25.8,0,0,0-1.33,2.29l2.82,1.74A5.53,5.53,0,0,1,155,116.73Z" style="fill:#263238;stroke:#263238;stroke-linecap:round;stroke-linejoin:round;stroke-width:1.1002125520252548px"></path><path d="M166,138.05a4.71,4.71,0,0,1,1-.16l-2.77-1.61-.33-.19-2.78-1.6a4.73,4.73,0,0,1-.19,4.55l-2.49,4.62a22.45,22.45,0,0,0,2,1.14l2.75-4.47A5.07,5.07,0,0,1,166,138.05Z" style="fill:#263238;stroke:#263238;stroke-linecap:round;stroke-linejoin:round;stroke-width:1.1002125520252548px"></path><path d="M158,134.22a6,6,0,0,1,1,.37l-1.76-3.05-.21-.36-1.76-3.06a5.61,5.61,0,0,1-.18,1,5.53,5.53,0,0,1-2.51,3.17l-2.81,1.74a24.88,24.88,0,0,0,1.32,2.3l2.91-1.57A5.63,5.63,0,0,1,158,134.22Z" style="fill:#263238;stroke:#263238;stroke-linecap:round;stroke-linejoin:round;stroke-width:1.1002125520252548px"></path><path d="M182.41,139a5,5,0,0,1-.52-3.64,4.36,4.36,0,0,1,.33-.91l-2.78,1.6-.32.19-2.78,1.61a4.71,4.71,0,0,1,.95.16,5.07,5.07,0,0,1,2.89,2.28l2.75,4.47q1-.53,2-1.14Z" style="fill:#263238;stroke:#263238;stroke-linecap:round;stroke-linejoin:round;stroke-width:1.1002125520252548px"></path><path d="M174.55,140.44a5.59,5.59,0,0,1,.82-.68H167.9a5.59,5.59,0,0,1,.82.68,5.66,5.66,0,0,1,1.5,3.76l.09,3.31c.44,0,.88,0,1.33,0s.88,0,1.32,0l.1-3.31A5.6,5.6,0,0,1,174.55,140.44Z" style="fill:#263238;stroke:#263238;stroke-linecap:round;stroke-linejoin:round;stroke-width:1.1002125520252548px"></path><path d="M188.24,129.17a5.75,5.75,0,0,1-.18-1l-1.76,3.06-.21.36-1.76,3.05a6,6,0,0,1,1-.37,5.63,5.63,0,0,1,4,.59l2.91,1.57c.48-.74.92-1.51,1.33-2.3l-2.82-1.73A5.59,5.59,0,0,1,188.24,129.17Z" style="fill:#263238;stroke:#263238;stroke-linecap:round;stroke-linejoin:round;stroke-width:1.1002125520252548px"></path><path d="M187.54,120.3a4.67,4.67,0,0,1-.62-.75v6.8a4.67,4.67,0,0,1,.62-.75,5.09,5.09,0,0,1,3.42-1.36l5.24-.15q0-.57,0-1.14t0-1.14l-5.24-.15A5.09,5.09,0,0,1,187.54,120.3Z" style="fill:#263238;stroke:#263238;stroke-linecap:round;stroke-linejoin:round;stroke-width:1.1002125520252548px"></path><path d="M155.73,125.6a4.67,4.67,0,0,1,.62.75v-6.8a4.67,4.67,0,0,1-.62.75,5.09,5.09,0,0,1-3.41,1.36l-5.25.15q0,.57,0,1.14t0,1.14l5.25.15A5.09,5.09,0,0,1,155.73,125.6Z" style="fill:#263238;stroke:#263238;stroke-linecap:round;stroke-linejoin:round;stroke-width:1.1002125520252548px"></path><path d="M185.32,111.68a6,6,0,0,1-1-.37l1.76,3,.21.36,1.76,3.06a5.75,5.75,0,0,1,.18-1,5.57,5.57,0,0,1,2.51-3.17l2.82-1.74c-.41-.79-.85-1.56-1.33-2.3l-2.91,1.58A5.62,5.62,0,0,1,185.32,111.68Z" style="fill:#263238;stroke:#263238;stroke-linecap:round;stroke-linejoin:round;stroke-width:1.1002125520252548px"></path><path d="M177.29,107.85a4.71,4.71,0,0,1-.95.16l2.78,1.61.32.19,2.78,1.6a4.81,4.81,0,0,1-.34-.91,5.07,5.07,0,0,1,.53-3.63l2.49-4.62a22.53,22.53,0,0,0-2-1.15l-2.75,4.47A5.07,5.07,0,0,1,177.29,107.85Z" style="fill:#263238;stroke:#263238;stroke-linecap:round;stroke-linejoin:round;stroke-width:1.1002125520252548px"></path><path d="M168.72,105.46a5.59,5.59,0,0,1-.82.68h7.47a5.21,5.21,0,0,1-2.31-4.44l-.1-3.31c-.44,0-.88,0-1.32,0s-.89,0-1.33,0l-.09,3.31A5.64,5.64,0,0,1,168.72,105.46Z" style="fill:#263238;stroke:#263238;stroke-linecap:round;stroke-linejoin:round;stroke-width:1.1002125520252548px"></path><path d="M160.86,106.86a5.12,5.12,0,0,1,.53,3.65,5,5,0,0,1-.34.9l2.78-1.6.33-.19,2.77-1.61a4.71,4.71,0,0,1-1-.16,5.07,5.07,0,0,1-2.89-2.28l-2.75-4.47c-.68.36-1.34.74-2,1.15Z" style="fill:#263238;stroke:#263238;stroke-linecap:round;stroke-linejoin:round;stroke-width:1.1002125520252548px"></path><circle cx="171.64" cy="122.95" r="22.6" style="fill:#263238;stroke:#263238;stroke-linecap:round;stroke-linejoin:round;stroke-width:1.1002125520252548px"></circle><path d="M173.39,105.7a2.33,2.33,0,1,1-2.32-2.22A2.27,2.27,0,0,1,173.39,105.7Z" style="fill:#4760A1"></path><path d="M159.34,123.62A2.33,2.33,0,1,1,157,121.4,2.27,2.27,0,0,1,159.34,123.62Z" style="fill:#4760A1"></path><ellipse cx="167.43" cy="117.85" rx="2.33" ry="2.22" style="fill:#4760A1"></ellipse><path d="M164.32,137.13a2.33,2.33,0,1,1-2.32-2.21A2.27,2.27,0,0,1,164.32,137.13Z" style="fill:#4760A1"></path><ellipse cx="187.37" cy="127.83" rx="2.33" ry="2.22" style="fill:#4760A1"></ellipse><path d="M173.05,130.85a2.33,2.33,0,1,1-2.33-2.21A2.28,2.28,0,0,1,173.05,130.85Z" style="fill:#4760A1"></path><path d="M180.58,122a2.33,2.33,0,1,1-2.33-2.22A2.28,2.28,0,0,1,180.58,122Z" style="fill:#4760A1"></path><path d="M186.2,111.67a2.33,2.33,0,1,1-2.33-2.22A2.27,2.27,0,0,1,186.2,111.67Z" style="fill:#4760A1"></path><path d="M180.83,138.24A2.33,2.33,0,1,1,178.5,136,2.28,2.28,0,0,1,180.83,138.24Z" style="fill:#4760A1"></path><path d="M161.78,109.66a2.33,2.33,0,1,1-2.33-2.22A2.28,2.28,0,0,1,161.78,109.66Z" style="fill:#4760A1"></path><line x1="429.92" y1="266.07" x2="429.92" y2="275.11" style="fill:none;stroke:#263238;stroke-linecap:round;stroke-linejoin:round;stroke-width:1.1002125520252548px"></line><line x1="429.92" y1="244.21" x2="429.92" y2="233.09" style="fill:none;stroke:#263238;stroke-linecap:round;stroke-linejoin:round;stroke-width:1.1002125520252548px"></line><line x1="436.04" y1="264.6" x2="439.88" y2="269.05" style="fill:none;stroke:#263238;stroke-linecap:round;stroke-linejoin:round;stroke-width:1.1002125520252548px"></line><line x1="422.91" y1="246.83" x2="419.28" y2="243.19" style="fill:none;stroke:#263238;stroke-linecap:round;stroke-linejoin:round;stroke-width:1.1002125520252548px"></line><line x1="437.26" y1="246.83" x2="441.3" y2="242.58" style="fill:none;stroke:#263238;stroke-linecap:round;stroke-linejoin:round;stroke-width:1.1002125520252548px"></line><line x1="422.71" y1="263.59" x2="418.67" y2="268.44" style="fill:none;stroke:#263238;stroke-linecap:round;stroke-linejoin:round;stroke-width:1.1002125520252548px"></line><line x1="410.39" y1="255.92" x2="419.28" y2="255.92" style="fill:none;stroke:#263238;stroke-linecap:round;stroke-linejoin:round;stroke-width:1.1002125520252548px"></line><line x1="440.85" y1="255.14" x2="452" y2="255.14" style="fill:none;stroke:#263238;stroke-linecap:round;stroke-linejoin:round;stroke-width:1.1002125520252548px"></line><line x1="430.02" y1="259.56" x2="430.02" y2="263.08" style="fill:none;stroke:#263238;stroke-linecap:round;stroke-linejoin:round;stroke-width:1.1002125520252548px"></line><line x1="430.02" y1="251.06" x2="430.02" y2="246.73" style="fill:none;stroke:#263238;stroke-linecap:round;stroke-linejoin:round;stroke-width:1.1002125520252548px"></line><line x1="432.38" y1="258.99" x2="433.85" y2="260.72" style="fill:none;stroke:#263238;stroke-linecap:round;stroke-linejoin:round;stroke-width:1.1002125520252548px"></line><line x1="427.33" y1="252.08" x2="425.93" y2="250.66" style="fill:none;stroke:#263238;stroke-linecap:round;stroke-linejoin:round;stroke-width:1.1002125520252548px"></line><line x1="432.84" y1="252.08" x2="434.4" y2="250.43" style="fill:none;stroke:#263238;stroke-linecap:round;stroke-linejoin:round;stroke-width:1.1002125520252548px"></line><line x1="427.25" y1="258.6" x2="425.7" y2="260.49" style="fill:none;stroke:#263238;stroke-linecap:round;stroke-linejoin:round;stroke-width:1.1002125520252548px"></line><line x1="422.51" y1="255.61" x2="425.93" y2="255.61" style="fill:none;stroke:#263238;stroke-linecap:round;stroke-linejoin:round;stroke-width:1.1002125520252548px"></line><line x1="434.23" y1="255.31" x2="438.52" y2="255.31" style="fill:none;stroke:#263238;stroke-linecap:round;stroke-linejoin:round;stroke-width:1.1002125520252548px"></line><path d="M355.4,81.73a3.26,3.26,0,0,0,.52.44h-4.76a3.26,3.26,0,0,0,.52-.44,3.51,3.51,0,0,0,.95-2.39l.17-5.69c-.32-.14-.85-.44-.85-.74,0-.51.74-.93,1.65-.93s1.66.42,1.66.93c0,.33-.6.65-1,.78l.16,5.65A3.55,3.55,0,0,0,355.4,81.73Zm-7.3.08-2.7-4.38c.24-.27.56-.79.41-1.06s-1-.39-1.72,0-1.11,1.07-.88,1.48c.14.23.69.23,1,.19l2.46,4.56A3.25,3.25,0,0,1,347,85a3,3,0,0,1-.22.58l1.77-1,.21-.12,1.77-1a2.78,2.78,0,0,1-.6-.1A3.24,3.24,0,0,1,348.1,81.81Zm-5.83,3.52-5-2.69c.08-.39.1-1.07-.19-1.24-.44-.25-1.17.18-1.63,1s-.46,1.64,0,1.9c.26.15.79-.16,1.06-.36l4.85,3a3.59,3.59,0,0,1,1.6,2,4.33,4.33,0,0,1,.11.66l1.12-1.94.14-.23,1.12-2a3.27,3.27,0,0,1-3.18-.13Zm-1,6.73-5.14.14c-.12-.34-.41-.88-.71-.88-.46,0-.84.67-.84,1.5s.38,1.5.84,1.5c.28,0,.55-.48.67-.77l5.18.15a3.17,3.17,0,0,1,2.17.87,3.09,3.09,0,0,1,.4.47V90.71a3.18,3.18,0,0,1-.4.48A3.26,3.26,0,0,1,341.23,92.06Zm.13,6.8-4.81,3c-.3-.26-.88-.62-1.17-.46s-.43,1.11,0,1.9,1.18,1.22,1.63,1c.26-.15.26-.76.22-1.11l5-2.7a3.58,3.58,0,0,1,2.56-.37,2.89,2.89,0,0,1,.63.24l-1.12-2-.14-.23-1.12-2a4.46,4.46,0,0,1-.11.67A3.57,3.57,0,0,1,341.36,98.86Zm5.31,4.27-2.44,4.52c-.36-.07-1-.09-1.12.17s.16,1.07.88,1.48,1.49.43,1.72,0c.14-.23-.14-.71-.33-1L348.1,104a3.2,3.2,0,0,1,1.84-1.45,2.78,2.78,0,0,1,.6-.1l-1.77-1-.21-.12-1.77-1a3,3,0,0,1,.22.58A3.25,3.25,0,0,1,346.67,103.13Zm6,3.29.17,5.65c-.38.13-1,.44-1,.78,0,.51.74.92,1.65.92s1.65-.41,1.65-.92c0-.3-.52-.61-.84-.74l.16-5.69a3.6,3.6,0,0,1,1-2.4,3.22,3.22,0,0,1,.52-.43h-4.76a3.22,3.22,0,0,1,.52.43A3.54,3.54,0,0,1,352.63,106.42ZM359,104l2.7,4.37c-.24.28-.57.8-.42,1.06.23.41,1,.4,1.72,0s1.12-1.08.89-1.48c-.14-.24-.7-.24-1-.2l-2.45-4.55a3.2,3.2,0,0,1-.34-2.32,3.71,3.71,0,0,1,.21-.58l-1.77,1-.21.12-1.77,1a2.88,2.88,0,0,1,.61.1A3.2,3.2,0,0,1,359,104Zm5.83-3.52,5,2.68c-.07.4-.1,1.08.19,1.24.45.26,1.17-.18,1.63-1s.47-1.64,0-1.89c-.27-.15-.79.15-1.07.36l-4.84-3a3.53,3.53,0,0,1-1.6-2,3.46,3.46,0,0,1-.12-.67l-1.12,2-.13.23-1.13,2a3,3,0,0,1,.64-.24A3.55,3.55,0,0,1,364.81,100.43Zm1-6.73,5.13-.15c.12.35.41.89.71.89.47,0,.85-.67.85-1.5s-.38-1.5-.85-1.5c-.27,0-.55.47-.67.76l-5.17-.14a3.29,3.29,0,0,1-2.18-.87,3.14,3.14,0,0,1-.39-.48V95a3,3,0,0,1,.39-.47A3.24,3.24,0,0,1,365.85,93.7Zm-.13-6.81,4.8-3c.31.26.88.62,1.17.45s.43-1.1,0-1.89-1.19-1.23-1.63-1c-.26.15-.26.76-.22,1.1l-5,2.7a3.51,3.51,0,0,1-2.55.38,3.6,3.6,0,0,1-.64-.24l1.13,2,.13.23L364,89.58a3.36,3.36,0,0,1,.12-.66A3.55,3.55,0,0,1,365.72,86.89Zm-5.31-4.26,2.43-4.52c.36.07,1,.09,1.13-.17s-.16-1.07-.88-1.48-1.49-.43-1.72,0c-.14.24.14.72.33,1L359,81.81a3.24,3.24,0,0,1-1.84,1.45,2.88,2.88,0,0,1-.61.1l1.77,1,.21.12,1.77,1a3.71,3.71,0,0,1-.21-.58A3.2,3.2,0,0,1,360.41,82.63Z" style="fill:#4760A1;stroke:#263238;stroke-linecap:round;stroke-linejoin:round;stroke-width:1.1002125520252548px"></path><path d="M343,88.92a4.33,4.33,0,0,1,.11.66l1.12-1.94.14-.23,1.12-2a3.27,3.27,0,0,1-3.18-.13l-1.86-1a15.19,15.19,0,0,0-.85,1.47l1.8,1.1A3.59,3.59,0,0,1,343,88.92Z" style="fill:#263238;stroke:#263238;stroke-linecap:round;stroke-linejoin:round;stroke-width:1.1002125520252548px"></path><path d="M349.94,102.5a2.78,2.78,0,0,1,.6-.1l-1.77-1-.21-.12-1.77-1a3,3,0,0,1,.22.58,3.25,3.25,0,0,1-.34,2.32l-1.59,2.94c.41.26.83.5,1.26.73L348.1,104A3.2,3.2,0,0,1,349.94,102.5Z" style="fill:#263238;stroke:#263238;stroke-linecap:round;stroke-linejoin:round;stroke-width:1.1002125520252548px"></path><path d="M344.82,100.06a2.89,2.89,0,0,1,.63.24l-1.12-2-.14-.23-1.12-2a4.46,4.46,0,0,1-.11.67,3.57,3.57,0,0,1-1.6,2l-1.8,1.11a16.33,16.33,0,0,0,.85,1.46l1.85-1A3.58,3.58,0,0,1,344.82,100.06Z" style="fill:#263238;stroke:#263238;stroke-linecap:round;stroke-linejoin:round;stroke-width:1.1002125520252548px"></path><path d="M360.41,103.13a3.2,3.2,0,0,1-.34-2.32,3.71,3.71,0,0,1,.21-.58l-1.77,1-.21.12-1.77,1a2.88,2.88,0,0,1,.61.1A3.2,3.2,0,0,1,359,104l1.76,2.85c.43-.23.85-.47,1.25-.73Z" style="fill:#263238;stroke:#263238;stroke-linecap:round;stroke-linejoin:round;stroke-width:1.1002125520252548px"></path><path d="M355.4,104a3.22,3.22,0,0,1,.52-.43h-4.76a3.22,3.22,0,0,1,.52.43,3.54,3.54,0,0,1,.95,2.4l.06,2.11.85,0,.84,0,.06-2.11A3.6,3.6,0,0,1,355.4,104Z" style="fill:#263238;stroke:#263238;stroke-linecap:round;stroke-linejoin:round;stroke-width:1.1002125520252548px"></path><path d="M364.12,96.84a3.46,3.46,0,0,1-.12-.67l-1.12,2-.13.23-1.13,2a3,3,0,0,1,.64-.24,3.55,3.55,0,0,1,2.55.37l1.86,1c.3-.47.58-1,.84-1.46l-1.79-1.11A3.53,3.53,0,0,1,364.12,96.84Z" style="fill:#263238;stroke:#263238;stroke-linecap:round;stroke-linejoin:round;stroke-width:1.1002125520252548px"></path><path d="M363.67,91.19a3.14,3.14,0,0,1-.39-.48V95a3,3,0,0,1,.39-.47,3.24,3.24,0,0,1,2.18-.87l3.34-.1c0-.24,0-.48,0-.72s0-.49,0-.73l-3.34-.09A3.29,3.29,0,0,1,363.67,91.19Z" style="fill:#263238;stroke:#263238;stroke-linecap:round;stroke-linejoin:round;stroke-width:1.1002125520252548px"></path><path d="M343.4,94.57a3.09,3.09,0,0,1,.4.47V90.71a3.18,3.18,0,0,1-.4.48,3.26,3.26,0,0,1-2.17.87l-3.35.09c0,.24,0,.48,0,.73s0,.48,0,.72l3.35.1A3.17,3.17,0,0,1,343.4,94.57Z" style="fill:#263238;stroke:#263238;stroke-linecap:round;stroke-linejoin:round;stroke-width:1.1002125520252548px"></path><path d="M362.26,85.7a3.6,3.6,0,0,1-.64-.24l1.13,2,.13.23L364,89.58a3.36,3.36,0,0,1,.12-.66,3.55,3.55,0,0,1,1.6-2l1.79-1.1q-.39-.77-.84-1.47l-1.86,1A3.51,3.51,0,0,1,362.26,85.7Z" style="fill:#263238;stroke:#263238;stroke-linecap:round;stroke-linejoin:round;stroke-width:1.1002125520252548px"></path><path d="M357.14,83.26a2.88,2.88,0,0,1-.61.1l1.77,1,.21.12,1.77,1a3.71,3.71,0,0,1-.21-.58,3.2,3.2,0,0,1,.34-2.32L362,79.69a12,12,0,0,0-1.25-.73L359,81.81A3.24,3.24,0,0,1,357.14,83.26Z" style="fill:#263238;stroke:#263238;stroke-linecap:round;stroke-linejoin:round;stroke-width:1.1002125520252548px"></path><path d="M351.68,81.73a3.26,3.26,0,0,1-.52.44h4.76a3.26,3.26,0,0,1-.52-.44,3.55,3.55,0,0,1-1-2.39l-.06-2.11c-.28,0-.56,0-.84,0s-.57,0-.85,0l-.06,2.11A3.51,3.51,0,0,1,351.68,81.73Z" style="fill:#263238;stroke:#263238;stroke-linecap:round;stroke-linejoin:round;stroke-width:1.1002125520252548px"></path><path d="M346.67,82.63A3.25,3.25,0,0,1,347,85a3,3,0,0,1-.22.58l1.77-1,.21-.12,1.77-1a2.78,2.78,0,0,1-.6-.1,3.24,3.24,0,0,1-1.84-1.45L346.34,79c-.43.22-.85.47-1.26.73Z" style="fill:#263238;stroke:#263238;stroke-linecap:round;stroke-linejoin:round;stroke-width:1.1002125520252548px"></path><circle cx="353.54" cy="92.88" r="14.4" transform="translate(-10.6 60.91) rotate(-9.7)" style="fill:#263238;stroke:#263238;stroke-linecap:round;stroke-linejoin:round;stroke-width:1.1002125520252548px"></circle><ellipse cx="353.18" cy="81.88" rx="1.48" ry="1.41" style="fill:#4760A1"></ellipse><path d="M345.7,93.3a1.48,1.48,0,1,1-1.48-1.41A1.44,1.44,0,0,1,345.7,93.3Z" style="fill:#4760A1"></path><path d="M352.34,89.63a1.49,1.49,0,1,1-1.49-1.41A1.45,1.45,0,0,1,352.34,89.63Z" style="fill:#4760A1"></path><path d="M348.88,101.91a1.49,1.49,0,1,1-1.48-1.41A1.46,1.46,0,0,1,348.88,101.91Z" style="fill:#4760A1"></path><path d="M365,96a1.48,1.48,0,1,1-1.48-1.41A1.45,1.45,0,0,1,365,96Z" style="fill:#4760A1"></path><path d="M354.44,97.91a1.49,1.49,0,0,1-3,0,1.49,1.49,0,0,1,3,0Z" style="fill:#4760A1"></path><path d="M359.24,92.27a1.49,1.49,0,1,1-1.49-1.42A1.45,1.45,0,0,1,359.24,92.27Z" style="fill:#4760A1"></path><path d="M362.82,85.69a1.49,1.49,0,1,1-1.48-1.41A1.45,1.45,0,0,1,362.82,85.69Z" style="fill:#4760A1"></path><path d="M359.4,102.62a1.49,1.49,0,1,1-1.49-1.41A1.45,1.45,0,0,1,359.4,102.62Z" style="fill:#4760A1"></path><path d="M347.25,84.41A1.48,1.48,0,1,1,345.77,83,1.44,1.44,0,0,1,347.25,84.41Z" style="fill:#4760A1"></path><path d="M87.36,254.73a3.72,3.72,0,0,0,.52.43H83.12a3.22,3.22,0,0,0,.52-.43,3.57,3.57,0,0,0,1-2.39l.16-5.69c-.32-.14-.84-.44-.84-.75,0-.51.74-.92,1.65-.92s1.65.41,1.65.92c0,.34-.6.66-1,.79l.17,5.65A3.51,3.51,0,0,0,87.36,254.73Zm-7.3.07-2.7-4.37c.24-.28.57-.8.42-1.06s-1-.39-1.72,0-1.12,1.08-.88,1.48c.13.24.69.24,1,.2l2.46,4.56a3.21,3.21,0,0,1,.33,2.31,2.26,2.26,0,0,1-.21.58l1.77-1,.21-.12,1.77-1a2.87,2.87,0,0,1-.61-.11A3.19,3.19,0,0,1,80.06,254.8Zm-5.83,3.52-5-2.68c.07-.39.1-1.07-.19-1.24s-1.17.18-1.63,1-.47,1.64,0,1.89c.26.16.78-.15,1.06-.36l4.85,3a3.55,3.55,0,0,1,1.59,2,3.46,3.46,0,0,1,.12.67l1.12-1.95.13-.23,1.13-1.94a3.4,3.4,0,0,1-3.19-.14Zm-1,6.73-5.13.15c-.12-.34-.41-.89-.71-.89-.47,0-.84.67-.84,1.5s.37,1.51.84,1.51c.27,0,.55-.48.67-.77l5.17.15a3.17,3.17,0,0,1,2.18.87,2.63,2.63,0,0,1,.39.47v-4.33a2.63,2.63,0,0,1-.39.47A3.17,3.17,0,0,1,73.19,265.05Zm.14,6.81-4.81,3c-.31-.27-.88-.63-1.17-.46s-.43,1.1,0,1.9,1.19,1.22,1.63,1c.26-.15.26-.76.22-1.1l5-2.7a3.4,3.4,0,0,1,3.19-.14l-1.13-1.94-.13-.23L75,269.17a3.46,3.46,0,0,1-.12.67A3.55,3.55,0,0,1,73.33,271.86Zm5.31,4.26-2.44,4.53c-.36-.07-1-.1-1.13.17s.16,1.06.88,1.48,1.49.42,1.73,0c.13-.24-.14-.72-.33-1l2.71-4.4a3.19,3.19,0,0,1,1.84-1.45,2.87,2.87,0,0,1,.61-.11l-1.77-1-.21-.12-1.77-1a2.33,2.33,0,0,1,.21.57A3.24,3.24,0,0,1,78.64,276.12Zm6,3.29.16,5.65c-.38.13-1,.45-1,.78,0,.52.74.93,1.66.93s1.65-.41,1.65-.93c0-.3-.53-.6-.85-.74l.17-5.69a3.51,3.51,0,0,1,1-2.39,3.72,3.72,0,0,1,.52-.43H83.12a3.22,3.22,0,0,1,.52.43A3.57,3.57,0,0,1,84.6,279.41ZM91,277l2.69,4.37c-.24.27-.56.8-.41,1.06s1,.39,1.72,0,1.11-1.08.88-1.48c-.14-.24-.69-.24-1-.2l-2.46-4.56A3.25,3.25,0,0,1,92,273.8a2.9,2.9,0,0,1,.22-.57l-1.77,1-.21.12-1.77,1a2.87,2.87,0,0,1,.61.11A3.22,3.22,0,0,1,91,277Zm5.83-3.52,5,2.68c-.08.39-.1,1.07.19,1.24.44.25,1.17-.18,1.63-1s.46-1.64,0-1.89c-.26-.16-.79.15-1.06.36l-4.85-3a3.51,3.51,0,0,1-1.59-2,3.46,3.46,0,0,1-.12-.67l-1.12,1.95-.13.23-1.13,1.94a3.28,3.28,0,0,1,.64-.23A3.56,3.56,0,0,1,96.78,273.43Zm1-6.73,5.14-.15c.12.34.41.89.71.89.47,0,.84-.68.84-1.51s-.37-1.5-.84-1.5c-.27,0-.55.48-.67.77l-5.18-.15a3.17,3.17,0,0,1-2.17-.87,2.67,2.67,0,0,1-.4-.47V268a2.67,2.67,0,0,1,.4-.47A3.17,3.17,0,0,1,97.81,266.7Zm-.13-6.81,4.81-3c.3.27.88.63,1.17.46.44-.26.43-1.11,0-1.9s-1.18-1.22-1.62-1c-.27.15-.27.75-.22,1.1l-5,2.7a3.56,3.56,0,0,1-2.55.37,3.28,3.28,0,0,1-.64-.23l1.13,1.94.13.23L96,262.58a3.46,3.46,0,0,1,.12-.67A3.51,3.51,0,0,1,97.68,259.89Zm-5.31-4.26,2.44-4.53c.36.07,1,.1,1.13-.17s-.17-1.06-.88-1.48-1.49-.42-1.73,0c-.13.24.14.72.33,1L91,254.8a3.22,3.22,0,0,1-1.84,1.45,2.87,2.87,0,0,1-.61.11l1.77,1,.21.12,1.77,1a2.75,2.75,0,0,1-.22-.58A3.21,3.21,0,0,1,92.37,255.63Z" style="fill:#4760A1;stroke:#263238;stroke-linecap:round;stroke-linejoin:round;stroke-width:1.1002125520252548px"></path><path d="M74.92,261.91a3.46,3.46,0,0,1,.12.67l1.12-1.95.13-.23,1.13-1.94a3.4,3.4,0,0,1-3.19-.14l-1.85-1a16.33,16.33,0,0,0-.85,1.46l1.8,1.11A3.55,3.55,0,0,1,74.92,261.91Z" style="fill:#263238;stroke:#263238;stroke-linecap:round;stroke-linejoin:round;stroke-width:1.1002125520252548px"></path><path d="M81.9,275.5a2.87,2.87,0,0,1,.61-.11l-1.77-1-.21-.12-1.77-1a2.33,2.33,0,0,1,.21.57,3.24,3.24,0,0,1-.33,2.32l-1.59,2.95q.61.39,1.26.72L80.06,277A3.19,3.19,0,0,1,81.9,275.5Z" style="fill:#263238;stroke:#263238;stroke-linecap:round;stroke-linejoin:round;stroke-width:1.1002125520252548px"></path><path d="M76.78,273.06a3.54,3.54,0,0,1,.64.23l-1.13-1.94-.13-.23L75,269.17a3.46,3.46,0,0,1-.12.67,3.58,3.58,0,0,1-1.59,2L71.53,273a16.33,16.33,0,0,0,.85,1.46l1.85-1A3.55,3.55,0,0,1,76.78,273.06Z" style="fill:#263238;stroke:#263238;stroke-linecap:round;stroke-linejoin:round;stroke-width:1.1002125520252548px"></path><path d="M92.37,276.12A3.25,3.25,0,0,1,92,273.8a2.9,2.9,0,0,1,.22-.57l-1.77,1-.21.12-1.77,1a2.87,2.87,0,0,1,.61.11A3.22,3.22,0,0,1,91,277l1.75,2.84q.64-.33,1.26-.72Z" style="fill:#263238;stroke:#263238;stroke-linecap:round;stroke-linejoin:round;stroke-width:1.1002125520252548px"></path><path d="M87.36,277a3.72,3.72,0,0,1,.52-.43H83.12a3.22,3.22,0,0,1,.52.43,3.57,3.57,0,0,1,1,2.39l.06,2.11q.42,0,.84,0c.29,0,.57,0,.85,0l.06-2.11A3.51,3.51,0,0,1,87.36,277Z" style="fill:#263238;stroke:#263238;stroke-linecap:round;stroke-linejoin:round;stroke-width:1.1002125520252548px"></path><path d="M96.09,269.84a3.46,3.46,0,0,1-.12-.67l-1.12,1.95-.13.23-1.13,1.94a3.28,3.28,0,0,1,.64-.23,3.56,3.56,0,0,1,2.55.37l1.85,1a16.33,16.33,0,0,0,.85-1.46l-1.8-1.11A3.51,3.51,0,0,1,96.09,269.84Z" style="fill:#263238;stroke:#263238;stroke-linecap:round;stroke-linejoin:round;stroke-width:1.1002125520252548px"></path><path d="M95.64,264.18a2.67,2.67,0,0,1-.4-.47V268a2.67,2.67,0,0,1,.4-.47,3.17,3.17,0,0,1,2.17-.87l3.35-.1c0-.24,0-.48,0-.73s0-.48,0-.72l-3.35-.1A3.17,3.17,0,0,1,95.64,264.18Z" style="fill:#263238;stroke:#263238;stroke-linecap:round;stroke-linejoin:round;stroke-width:1.1002125520252548px"></path><path d="M75.37,267.57a2.63,2.63,0,0,1,.39.47v-4.33a2.63,2.63,0,0,1-.39.47,3.17,3.17,0,0,1-2.18.87l-3.34.1c0,.24,0,.48,0,.72s0,.49,0,.73l3.34.1A3.17,3.17,0,0,1,75.37,267.57Z" style="fill:#263238;stroke:#263238;stroke-linecap:round;stroke-linejoin:round;stroke-width:1.1002125520252548px"></path><path d="M94.23,258.69a3.28,3.28,0,0,1-.64-.23l1.13,1.94.13.23L96,262.58a3.46,3.46,0,0,1,.12-.67,3.51,3.51,0,0,1,1.59-2l1.8-1.11a16.33,16.33,0,0,0-.85-1.46l-1.85,1A3.56,3.56,0,0,1,94.23,258.69Z" style="fill:#263238;stroke:#263238;stroke-linecap:round;stroke-linejoin:round;stroke-width:1.1002125520252548px"></path><path d="M89.11,256.25a2.87,2.87,0,0,1-.61.11l1.77,1,.21.12,1.77,1a2.75,2.75,0,0,1-.22-.58,3.21,3.21,0,0,1,.34-2.31L94,252.68c-.41-.26-.83-.5-1.26-.73L91,254.8A3.22,3.22,0,0,1,89.11,256.25Z" style="fill:#263238;stroke:#263238;stroke-linecap:round;stroke-linejoin:round;stroke-width:1.1002125520252548px"></path><path d="M83.64,254.73a3.22,3.22,0,0,1-.52.43h4.76a3.72,3.72,0,0,1-.52-.43,3.51,3.51,0,0,1-1-2.39l-.06-2.11c-.28,0-.56,0-.85,0l-.84,0-.06,2.11A3.57,3.57,0,0,1,83.64,254.73Z" style="fill:#263238;stroke:#263238;stroke-linecap:round;stroke-linejoin:round;stroke-width:1.1002125520252548px"></path><path d="M78.64,255.63a3.21,3.21,0,0,1,.33,2.31,2.26,2.26,0,0,1-.21.58l1.77-1,.21-.12,1.77-1a2.87,2.87,0,0,1-.61-.11,3.19,3.19,0,0,1-1.84-1.45L78.31,252a14.16,14.16,0,0,0-1.26.72Z" style="fill:#263238;stroke:#263238;stroke-linecap:round;stroke-linejoin:round;stroke-width:1.1002125520252548px"></path><circle cx="85.5" cy="265.87" r="14.4" transform="translate(-193.24 248.49) rotate(-68.6)" style="fill:#263238;stroke:#263238;stroke-linecap:round;stroke-linejoin:round;stroke-width:1.1002125520252548px"></circle><path d="M86.62,254.88a1.48,1.48,0,1,1-1.48-1.41A1.44,1.44,0,0,1,86.62,254.88Z" style="fill:#4760A1"></path><path d="M77.67,266.3a1.49,1.49,0,1,1-1.48-1.41A1.45,1.45,0,0,1,77.67,266.3Z" style="fill:#4760A1"></path><ellipse cx="82.82" cy="262.63" rx="1.48" ry="1.41" style="fill:#4760A1"></ellipse><path d="M80.84,274.91a1.48,1.48,0,1,1-1.48-1.41A1.44,1.44,0,0,1,80.84,274.91Z" style="fill:#4760A1"></path><ellipse cx="95.53" cy="268.98" rx="1.48" ry="1.41" style="fill:#4760A1"></ellipse><path d="M86.4,270.91a1.48,1.48,0,1,1-1.48-1.41A1.44,1.44,0,0,1,86.4,270.91Z" style="fill:#4760A1"></path><path d="M91.2,265.26a1.48,1.48,0,1,1-1.48-1.41A1.44,1.44,0,0,1,91.2,265.26Z" style="fill:#4760A1"></path><path d="M94.78,258.69a1.48,1.48,0,1,1-1.48-1.42A1.45,1.45,0,0,1,94.78,258.69Z" style="fill:#4760A1"></path><path d="M91.36,275.62a1.48,1.48,0,1,1-1.48-1.42A1.44,1.44,0,0,1,91.36,275.62Z" style="fill:#4760A1"></path><ellipse cx="77.74" cy="257.4" rx="1.48" ry="1.41" style="fill:#4760A1"></ellipse></g></svg>